<svg width="190" height="22" viewBox="0 0 190 22" fill="none" xmlns="http://www.w3.org/2000/svg">
<g clip-path="url(#clip0_6237_502)">
<path d="M183.809 14.692L186.023 8.5H187.355L189.569 14.692H188.516L187.976 13.162H185.366L184.835 14.692H183.809ZM185.654 12.298H187.679L186.689 9.481H186.644L185.654 12.298Z" fill="#AAB9DA"/>
<path d="M180.934 14.692V9.391H179.053V8.5H183.823V9.391H181.951V14.692H180.934Z" fill="#AAB9DA"/>
<path d="M174.153 14.692V8.5H178.275V9.364H175.17V11.137H177.852V12.001H175.17V13.828H178.275V14.692H174.153Z" fill="#AAB9DA"/>
<path d="M168 14.692V8.5H170.943C171.351 8.5 171.678 8.563 171.924 8.689C172.17 8.809 172.35 8.986 172.464 9.22C172.578 9.448 172.635 9.727 172.635 10.057C172.635 10.333 172.596 10.57 172.518 10.768C172.446 10.966 172.332 11.128 172.176 11.254C172.02 11.374 171.819 11.461 171.573 11.515V11.551C171.861 11.605 172.086 11.698 172.248 11.83C172.416 11.962 172.533 12.13 172.599 12.334C172.665 12.538 172.698 12.778 172.698 13.054C172.698 13.288 172.671 13.507 172.617 13.711C172.563 13.909 172.47 14.08 172.338 14.224C172.212 14.368 172.035 14.482 171.807 14.566C171.579 14.65 171.288 14.692 170.934 14.692H168ZM169.017 13.837H170.628C170.904 13.837 171.117 13.81 171.267 13.756C171.417 13.696 171.522 13.6 171.582 13.468C171.648 13.33 171.681 13.147 171.681 12.919C171.681 12.685 171.648 12.502 171.582 12.37C171.516 12.232 171.405 12.136 171.249 12.082C171.099 12.022 170.892 11.992 170.628 11.992H169.017V13.837ZM169.017 11.128H170.592C170.838 11.128 171.033 11.098 171.177 11.038C171.327 10.978 171.438 10.885 171.51 10.759C171.582 10.627 171.618 10.459 171.618 10.255C171.618 10.027 171.588 9.85 171.528 9.724C171.468 9.592 171.366 9.499 171.222 9.445C171.078 9.391 170.868 9.364 170.592 9.364H169.017V11.128Z" fill="#AAB9DA"/>
<path d="M18.2012 21.7585H9.2896C6.93204 21.7585 5.17801 21.2846 4.02752 20.3368C2.89589 19.3889 2.33008 17.9293 2.33008 15.9578V7.08628C2.33008 5.11482 2.89589 3.65519 4.02752 2.70737C5.17801 1.75955 6.93204 1.28564 9.2896 1.28564H16.3623C16.7206 1.28564 16.9752 1.37095 17.1261 1.54156C17.2959 1.69321 17.3807 1.94912 17.3807 2.30929V5.74986C17.3807 6.11003 17.2959 6.37542 17.1261 6.54603C16.9752 6.69768 16.7206 6.7735 16.3623 6.7735H10.4778C9.89313 6.7735 9.45934 6.89672 9.17644 7.14315C8.89353 7.37063 8.75208 7.72132 8.75208 8.19523V14.9911C8.75208 15.465 8.85581 15.8157 9.06327 16.0431C9.2896 16.2706 9.61966 16.3844 10.0534 16.3844H12.7977V11.9486C12.7977 11.5884 12.8731 11.3325 13.024 11.1809C13.1937 11.0102 13.4578 10.9249 13.8161 10.9249H18.2012C18.5595 10.9249 18.8141 11.0102 18.965 11.1809C19.1348 11.3325 19.2196 11.5884 19.2196 11.9486V20.7348C19.2196 21.095 19.1348 21.3604 18.965 21.531C18.8141 21.6827 18.5595 21.7585 18.2012 21.7585Z" fill="white"/>
<path d="M29.5695 7.25689L28.2398 11.5789H32.6814L31.3518 7.25689C31.2763 7.08628 31.1915 6.96307 31.0972 6.88724C31.0217 6.81142 30.9274 6.7735 30.8142 6.7735H30.107C29.9938 6.7735 29.8901 6.81142 29.7958 6.88724C29.7203 6.96307 29.6449 7.08628 29.5695 7.25689ZM27.9569 20.7348C27.9569 21.095 27.872 21.3604 27.7023 21.531C27.5514 21.6827 27.2968 21.7585 26.9384 21.7585H22.7797C22.4213 21.7585 22.1573 21.6827 21.9875 21.531C21.8366 21.3604 21.7612 21.095 21.7612 20.7348V13.2281C21.7612 12.6594 21.8461 12.0055 22.0158 11.2662C22.2044 10.5269 22.4873 9.66434 22.8645 8.67861L25.3258 2.22398C25.439 1.90172 25.6087 1.66477 25.8351 1.51312C26.0803 1.36147 26.3915 1.28564 26.7687 1.28564H34.3789C34.7372 1.28564 35.0296 1.36147 35.2559 1.51312C35.5011 1.66477 35.6803 1.90172 35.7934 2.22398L38.2547 8.67861C38.6319 9.66434 38.9054 10.5269 39.0751 11.2662C39.2637 12.0055 39.3581 12.6594 39.3581 13.2281V20.7348C39.3581 21.095 39.2732 21.3604 39.1034 21.531C38.9525 21.6827 38.6979 21.7585 38.3396 21.7585H34.0677C33.6905 21.7585 33.4076 21.6827 33.219 21.531C33.0492 21.3604 32.9643 21.095 32.9643 20.7348V16.754H27.9569V20.7348Z" fill="white"/>
<path d="M47.1345 21.7585H42.9191C42.5608 21.7585 42.2967 21.6827 42.127 21.531C41.9761 21.3604 41.9007 21.095 41.9007 20.7348V2.30929C41.9007 1.94912 41.9761 1.69321 42.127 1.54156C42.2967 1.37095 42.5608 1.28564 42.9191 1.28564H47.474C47.7757 1.28564 48.0209 1.35199 48.2095 1.48469C48.417 1.61738 48.6056 1.83538 48.7753 2.13868L51.3215 6.7735C51.4158 6.94411 51.4912 7.06733 51.5478 7.14315C51.6233 7.21898 51.7176 7.25689 51.8307 7.25689H52.0853C52.1985 7.25689 52.2834 7.21898 52.34 7.14315C52.4154 7.06733 52.5003 6.94411 52.5946 6.7735L55.1125 2.13868C55.2822 1.83538 55.4614 1.61738 55.65 1.48469C55.8574 1.35199 56.1121 1.28564 56.4138 1.28564H60.9969C61.3553 1.28564 61.6099 1.37095 61.7608 1.54156C61.9305 1.69321 62.0154 1.94912 62.0154 2.30929V20.7348C62.0154 21.095 61.9305 21.3604 61.7608 21.531C61.6099 21.6827 61.3553 21.7585 60.9969 21.7585H56.6402C56.2818 21.7585 56.0178 21.6827 55.848 21.531C55.6971 21.3604 55.6217 21.095 55.6217 20.7348V10.7259L53.9525 13.8253C53.7828 14.1475 53.5753 14.3845 53.3301 14.5361C53.1038 14.6688 52.8115 14.7352 52.4531 14.7352H51.3215C50.9631 14.7352 50.6614 14.6688 50.4162 14.5361C50.1899 14.3845 49.9918 14.1475 49.8221 13.8253L48.1529 10.7259V20.7348C48.1529 21.095 48.0681 21.3604 47.8983 21.531C47.7474 21.6827 47.4928 21.7585 47.1345 21.7585Z" fill="white"/>
<path d="M78.7027 21.7585H65.5758C65.2174 21.7585 64.9534 21.6827 64.7836 21.531C64.6327 21.3604 64.5573 21.095 64.5573 20.7348V2.30929C64.5573 1.94912 64.6327 1.69321 64.7836 1.54156C64.9534 1.37095 65.2174 1.28564 65.5758 1.28564H78.7027C79.061 1.28564 79.3156 1.37095 79.4665 1.54156C79.6363 1.69321 79.7211 1.94912 79.7211 2.30929V5.63612C79.7211 5.99629 79.6363 6.26168 79.4665 6.43229C79.3156 6.58394 79.061 6.65976 78.7027 6.65976H70.8944V8.84922H76.4111C76.7695 8.84922 77.0241 8.93452 77.175 9.10513C77.3447 9.25678 77.4296 9.51269 77.4296 9.87286V12.9154C77.4296 13.2755 77.3447 13.5409 77.175 13.7115C77.0241 13.8632 76.7695 13.939 76.4111 13.939H70.8944V16.3844H78.7027C79.061 16.3844 79.3156 16.4697 79.4665 16.6403C79.6363 16.7919 79.7211 17.0478 79.7211 17.408V20.7348C79.7211 21.095 79.6363 21.3604 79.4665 21.531C79.3156 21.6827 79.061 21.7585 78.7027 21.7585Z" fill="white"/>
<path d="M98.6685 21.7585H91.7655C89.408 21.7585 87.6539 21.2846 86.5034 20.3368C85.3718 19.3889 84.806 17.9293 84.806 15.9578V7.11472C84.806 5.14326 85.3718 3.68362 86.5034 2.7358C87.6539 1.76903 89.408 1.28564 91.7655 1.28564H98.6685C99.0268 1.28564 99.2814 1.37095 99.4323 1.54156C99.6021 1.69321 99.6869 1.94912 99.6869 2.30929V5.74986C99.6869 6.11003 99.6021 6.37542 99.4323 6.54603C99.2814 6.69768 99.0268 6.7735 98.6685 6.7735H92.982C92.3974 6.7735 91.9636 6.89672 91.6806 7.14315C91.3977 7.37063 91.2563 7.72132 91.2563 8.19523V14.9626C91.2563 15.4365 91.3977 15.7872 91.6806 16.0147C91.9636 16.2232 92.3974 16.3275 92.982 16.3275H98.6685C99.0268 16.3275 99.2814 16.4128 99.4323 16.5834C99.6021 16.7351 99.6869 16.991 99.6869 17.3511V20.7348C99.6869 21.095 99.6021 21.3604 99.4323 21.531C99.2814 21.6827 99.0268 21.7585 98.6685 21.7585Z" fill="white"/>
<path d="M110.038 7.25689L108.708 11.5789H113.15L111.82 7.25689C111.745 7.08628 111.66 6.96307 111.566 6.88724C111.49 6.81142 111.396 6.7735 111.283 6.7735H110.575C110.462 6.7735 110.359 6.81142 110.264 6.88724C110.189 6.96307 110.113 7.08628 110.038 7.25689ZM108.425 20.7348C108.425 21.095 108.34 21.3604 108.171 21.531C108.02 21.6827 107.765 21.7585 107.407 21.7585H103.248C102.89 21.7585 102.626 21.6827 102.456 21.531C102.305 21.3604 102.23 21.095 102.23 20.7348V13.2281C102.23 12.6594 102.315 12.0055 102.484 11.2662C102.673 10.5269 102.956 9.66434 103.333 8.67861L105.794 2.22398C105.907 1.90172 106.077 1.66477 106.304 1.51312C106.549 1.36147 106.86 1.28564 107.237 1.28564H114.847C115.206 1.28564 115.498 1.36147 115.724 1.51312C115.97 1.66477 116.149 1.90172 116.262 2.22398L118.723 8.67861C119.1 9.66434 119.374 10.5269 119.544 11.2662C119.732 12.0055 119.827 12.6594 119.827 13.2281V20.7348C119.827 21.095 119.742 21.3604 119.572 21.531C119.421 21.6827 119.166 21.7585 118.808 21.7585H114.536C114.159 21.7585 113.876 21.6827 113.687 21.531C113.518 21.3604 113.433 21.095 113.433 20.7348V16.754H108.425V20.7348Z" fill="white"/>
<path d="M134.844 21.7585H127.488C127.13 21.7585 126.828 21.6921 126.583 21.5594C126.356 21.4267 126.177 21.1803 126.045 20.8201L123.273 13.8537C123.103 13.4367 122.962 13.0765 122.848 12.7732C122.735 12.4509 122.641 12.1476 122.566 11.8633C122.49 11.5789 122.433 11.2851 122.396 10.9818C122.377 10.6596 122.367 10.2709 122.367 9.81599V2.30929C122.367 1.94912 122.443 1.69321 122.594 1.54156C122.764 1.37095 123.028 1.28564 123.386 1.28564H127.884C128.243 1.28564 128.516 1.37095 128.705 1.54156C128.893 1.69321 128.988 1.94912 128.988 2.30929V10.1572C128.988 10.3468 129.006 10.5363 129.044 10.7259C129.082 10.9155 129.138 11.1145 129.214 11.323L130.544 15.3039C130.6 15.4934 130.666 15.6261 130.742 15.7019C130.817 15.7588 130.93 15.7872 131.081 15.7872H131.392C131.543 15.7872 131.656 15.7588 131.732 15.7019C131.807 15.6261 131.873 15.4934 131.93 15.3039L133.259 11.2946C133.335 11.0861 133.391 10.887 133.429 10.6975C133.467 10.5079 133.486 10.3183 133.486 10.1288V2.30929C133.486 1.94912 133.561 1.69321 133.712 1.54156C133.882 1.37095 134.146 1.28564 134.504 1.28564H138.946C139.304 1.28564 139.559 1.37095 139.71 1.54156C139.879 1.69321 139.964 1.94912 139.964 2.30929V9.81599C139.964 10.2709 139.945 10.6596 139.908 10.9818C139.889 11.2851 139.842 11.5789 139.766 11.8633C139.691 12.1476 139.597 12.4509 139.483 12.7732C139.37 13.0765 139.229 13.4367 139.059 13.8537L136.287 20.8201C136.155 21.1803 135.966 21.4267 135.721 21.5594C135.494 21.6921 135.202 21.7585 134.844 21.7585Z" fill="white"/>
<path d="M156.652 21.7585H143.525C143.167 21.7585 142.903 21.6827 142.733 21.531C142.582 21.3604 142.507 21.095 142.507 20.7348V2.30929C142.507 1.94912 142.582 1.69321 142.733 1.54156C142.903 1.37095 143.167 1.28564 143.525 1.28564H156.652C157.011 1.28564 157.265 1.37095 157.416 1.54156C157.586 1.69321 157.671 1.94912 157.671 2.30929V5.63612C157.671 5.99629 157.586 6.26168 157.416 6.43229C157.265 6.58394 157.011 6.65976 156.652 6.65976H148.844V8.84922H154.361C154.719 8.84922 154.974 8.93452 155.125 9.10513C155.294 9.25678 155.379 9.51269 155.379 9.87286V12.9154C155.379 13.2755 155.294 13.5409 155.125 13.7115C154.974 13.8632 154.719 13.939 154.361 13.939H148.844V16.3844H156.652C157.011 16.3844 157.265 16.4697 157.416 16.6403C157.586 16.7919 157.671 17.0478 157.671 17.408V20.7348C157.671 21.095 157.586 21.3604 157.416 21.531C157.265 21.6827 157.011 21.7585 156.652 21.7585Z" fill="white"/>
</g>
<defs>
<clipPath id="clip0_6237_502">
<rect width="190" height="21" fill="white" transform="translate(0 0.5)"/>
</clipPath>
</defs>
</svg>
