<svg width="24" height="24" viewBox="0 0 24 24" fill="none" xmlns="http://www.w3.org/2000/svg">
<path fill-rule="evenodd" clip-rule="evenodd" d="M11.8019 2C10.8949 2 10.0878 2.49293 9.66938 3.26713C7.4167 4.12615 5.81083 6.30992 5.81083 8.85939V11.4206C5.81083 11.8371 5.61586 12.5461 5.40317 12.9006L4.38401 14.5933C3.97634 15.2668 3.88772 16.0201 4.14473 16.7025C4.39287 17.3849 4.96006 17.9078 5.70449 18.1648C6.66181 18.4853 7.64454 18.7275 8.64026 18.8914C8.80272 19.3783 9.07694 19.8268 9.4445 20.1944C10.0649 20.8147 10.9156 21.1692 11.793 21.1692C13.2625 21.1692 14.5103 20.2138 14.9486 18.8907C15.9417 18.7268 16.9208 18.4849 17.8724 18.1648C18.5725 17.9344 19.1308 17.4026 19.3878 16.7025C19.6448 16.0024 19.5739 15.2314 19.1929 14.5933L18.1826 12.9094C17.9699 12.5461 17.7749 11.8283 17.7749 11.4206V8.85939C17.7749 6.3191 16.1806 4.14188 13.9407 3.27646C13.524 2.49058 12.7135 2 11.8019 2ZM13.3531 19.0859C12.8342 19.1276 12.3136 19.1485 11.7929 19.1485C11.2725 19.1485 10.7521 19.1277 10.2334 19.086C10.2802 19.145 10.3304 19.2014 10.3839 19.255C10.7561 19.6272 11.2701 19.8399 11.793 19.8399C12.4237 19.8399 12.9873 19.545 13.3531 19.0859ZM7.14018 8.85939C7.14018 6.52289 8.8688 4.58925 11.1075 4.2571C11.5364 4.20014 11.9791 4.19783 12.4317 4.25017C14.6994 4.56141 16.4456 6.50606 16.4456 8.85939V11.4117C16.4456 12.0587 16.7026 13.0069 17.0393 13.583L18.0585 15.2757C18.2357 15.5681 18.2623 15.9138 18.1471 16.2328C18.0319 16.5518 17.7838 16.7911 17.4647 16.8975C13.7603 18.1382 9.83431 18.1382 6.12988 16.8975C5.76652 16.7734 5.50065 16.543 5.39431 16.2417C5.2791 15.9492 5.33227 15.6036 5.52724 15.2757L6.5464 13.583C6.87431 13.0247 7.14018 12.0675 7.14018 11.4206V8.85939Z" fill="#171725"/>
</svg>
