<svg width="24" height="24" viewBox="0 0 24 24" fill="none" xmlns="http://www.w3.org/2000/svg">
<path d="M12 13.6279C11.6116 13.6279 11.2895 13.3116 11.2895 12.9302V8.27907C11.2895 7.89767 11.6116 7.5814 12 7.5814C12.3884 7.5814 12.7105 7.89767 12.7105 8.27907V12.9302C12.7105 13.3116 12.3884 13.6279 12 13.6279Z" fill="#171725"/>
<path d="M12 22C7.03579 22 3 18.0372 3 13.1628C3 8.28837 7.03579 4.32558 12 4.32558C16.9642 4.32558 21 8.28837 21 13.1628C21 13.5442 20.6779 13.8605 20.2895 13.8605C19.9011 13.8605 19.5789 13.5442 19.5789 13.1628C19.5789 9.06047 16.1779 5.72093 12 5.72093C7.82211 5.72093 4.42105 9.06047 4.42105 13.1628C4.42105 17.2651 7.82211 20.6047 12 20.6047C12.3884 20.6047 12.7105 20.9209 12.7105 21.3023C12.7105 21.6837 12.3884 22 12 22Z" fill="#171725"/>
<path d="M14.8421 3.39535H9.15789C8.76947 3.39535 8.44737 3.07907 8.44737 2.69767C8.44737 2.31628 8.76947 2 9.15789 2H14.8421C15.2305 2 15.5526 2.31628 15.5526 2.69767C15.5526 3.07907 15.2305 3.39535 14.8421 3.39535Z" fill="#171725"/>
<path d="M15.9316 21.3209C15.6 21.3209 15.2968 21.2465 15.0221 21.0884C14.3968 20.7349 14.0368 20.0186 14.0368 19.1256V16.9767C14.0368 16.0837 14.3968 15.3674 15.0221 15.014C15.6474 14.6605 16.4526 14.7163 17.2389 15.1535L19.1337 16.2326C19.92 16.6791 20.3747 17.3395 20.3747 18.0465C20.3747 18.7535 19.92 19.414 19.1337 19.8605L17.2389 20.9395C16.8032 21.1907 16.3579 21.3209 15.9316 21.3209ZM15.9411 16.1674C15.8653 16.1674 15.7895 16.186 15.7326 16.214C15.5621 16.307 15.4579 16.5953 15.4579 16.9674V19.1163C15.4579 19.4884 15.5621 19.7767 15.7326 19.8698C15.9032 19.9628 16.2063 19.9163 16.5284 19.7302L18.4232 18.6512C18.7547 18.4651 18.9537 18.2326 18.9537 18.0465C18.9537 17.8605 18.7547 17.6279 18.4232 17.4419L16.5284 16.3628C16.3105 16.2326 16.1021 16.1674 15.9411 16.1674Z" fill="#171725"/>
</svg>
