<svg width="24" height="24" viewBox="0 0 24 24" fill="none" xmlns="http://www.w3.org/2000/svg">
<path d="M19.59 5.85L13.65 2.42C12.68 1.86 11.48 1.86 10.5 2.42L4.57 5.85C3.6 6.41 3 7.45 3 8.58V15.42C3 16.54 3.6 17.58 4.57 18.15L10.51 21.58C11.48 22.14 12.68 22.14 13.66 21.58L19.6 18.15C20.57 17.59 21.17 16.55 21.17 15.42V8.58C21.16 7.45 20.56 6.42 19.59 5.85ZM11.33 7.75C11.33 7.34 11.67 7 12.08 7C12.49 7 12.83 7.34 12.83 7.75V13C12.83 13.41 12.49 13.75 12.08 13.75C11.67 13.75 11.33 13.41 11.33 13V7.75ZM13 16.63C12.95 16.75 12.88 16.86 12.79 16.96C12.6 17.15 12.35 17.25 12.08 17.25C11.95 17.25 11.82 17.22 11.7 17.17C11.57 17.12 11.47 17.05 11.37 16.96C11.28 16.86 11.21 16.75 11.15 16.63C11.1 16.51 11.08 16.38 11.08 16.25C11.08 15.99 11.18 15.73 11.37 15.54C11.47 15.45 11.57 15.38 11.7 15.33C12.07 15.17 12.51 15.26 12.79 15.54C12.88 15.64 12.95 15.74 13 15.87C13.05 15.99 13.08 16.12 13.08 16.25C13.08 16.38 13.05 16.51 13 16.63Z" fill="#171725"/>
</svg>
