<svg width="24" height="24" viewBox="0 0 24 24" fill="none" xmlns="http://www.w3.org/2000/svg">
<path d="M16.1971 2H7.8129C4.17108 2 2 4.17 2 7.81V16.18C2 19.83 4.17108 22 7.8129 22H16.1871C19.8289 22 22 19.83 22 16.19V7.81C22.01 4.17 19.8389 2 16.1971 2ZM18.5382 12.53L14.2461 16.82C14.096 16.97 13.9059 17.04 13.7158 17.04C13.5257 17.04 13.3356 16.97 13.1856 16.82C12.8954 16.53 12.8954 16.05 13.1856 15.76L16.1971 12.75H6.00199C5.59179 12.75 5.25162 12.41 5.25162 12C5.25162 11.59 5.59179 11.25 6.00199 11.25H16.1971L13.1856 8.24C12.8954 7.95 12.8954 7.47 13.1856 7.18C13.4757 6.89 13.956 6.89 14.2461 7.18L18.5382 11.47C18.6783 11.61 18.7584 11.8 18.7584 12C18.7584 12.2 18.6783 12.39 18.5382 12.53Z" fill="#171725"/>
</svg>
