<svg width="24" height="24" viewBox="0 0 24 24" fill="none" xmlns="http://www.w3.org/2000/svg">
<path d="M14.8003 9.1995C15.0444 9.44357 15.0444 9.8393 14.8003 10.0834L12.8839 11.9998L14.8003 13.9162C15.0444 14.1602 15.0444 14.556 14.8003 14.8C14.5562 15.0441 14.1605 15.0441 13.9164 14.8L12 12.8837L10.0836 14.8C9.83955 15.0441 9.44382 15.0441 9.19974 14.8C8.95566 14.556 8.95566 14.1602 9.19974 13.9162L11.1161 11.9998L9.19974 10.0834C8.95566 9.8393 8.95566 9.44357 9.19974 9.1995C9.44382 8.95542 9.83955 8.95542 10.0836 9.1995L12 11.1159L13.9164 9.1995C14.1605 8.95542 14.5562 8.95542 14.8003 9.1995Z" fill="#171725"/>
<path fill-rule="evenodd" clip-rule="evenodd" d="M12.0001 3.0415C7.07157 3.0415 3.04175 7.07133 3.04175 11.9998C3.04175 16.9283 7.07157 20.9582 12.0001 20.9582C16.9286 20.9582 20.9584 16.9283 20.9584 11.9998C20.9584 7.07133 16.9286 3.0415 12.0001 3.0415ZM4.29175 11.9998C4.29175 7.76168 7.76193 4.2915 12.0001 4.2915C16.2382 4.2915 19.7084 7.76168 19.7084 11.9998C19.7084 16.238 16.2382 19.7082 12.0001 19.7082C7.76193 19.7082 4.29175 16.238 4.29175 11.9998Z" fill="#171725"/>
</svg>
