<svg width="24" height="24" viewBox="0 0 24 24" fill="none" xmlns="http://www.w3.org/2000/svg">
<path fill-rule="evenodd" clip-rule="evenodd" d="M20.68 2.22988C20.98 1.92988 21.47 1.92988 21.77 2.22988C22.08 2.52988 22.08 3.00988 21.77 3.30988L3.31 21.7699C3.16 21.9199 2.97 21.9999 2.77 21.9999C2.57 21.9999 2.38 21.9199 2.23 21.7799C1.93 21.4799 1.93 20.9899 2.23 20.6899L5.16949 17.7488C4.28369 16.9363 3.46604 15.9592 2.75 14.8399C1.75 13.2699 1.75 10.7199 2.75 9.14987C3.91 7.32987 5.33 5.89987 6.91 4.91987C8.49 3.95987 10.22 3.42987 12 3.42987C13.9861 3.42987 15.9167 4.08031 17.6292 5.28229L20.68 2.22988ZM14.2671 8.64629C13.6217 8.2085 12.8419 7.95987 12 7.95987C9.76 7.95987 7.96 9.76987 7.96 11.9999C7.96 12.8415 8.2141 13.621 8.65016 14.2662L9.51435 13.4016C9.27836 12.9848 9.14 12.5049 9.14 11.9999C9.14 10.4299 10.42 9.13989 12 9.13989C12.5045 9.13989 12.9839 9.27795 13.4003 9.51348L14.2671 8.64629ZM21.27 9.1799C20.98 8.7199 20.67 8.2899 20.35 7.8899C19.98 7.4199 19.28 7.3799 18.86 7.7999L15.86 10.7999C16.08 11.4599 16.12 12.2199 15.92 13.0099C15.57 14.4199 14.43 15.5599 13.02 15.9099C12.23 16.1099 11.47 16.0699 10.81 15.8499L8.35 18.3099C7.85 18.8099 8.01 19.6899 8.68 19.9499C9.75 20.3599 10.86 20.5699 12 20.5699C13.78 20.5699 15.51 20.0499 17.09 19.0799C18.7 18.0799 20.15 16.6099 21.32 14.7399C22.27 13.2299 22.22 10.6899 21.27 9.1799ZM14.86 11.9999C14.86 13.5699 13.58 14.8599 12 14.8599H12C11.94 14.8599 11.89 14.8599 11.83 14.8399L14.84 11.8299C14.86 11.8899 14.86 11.9399 14.86 11.9999V11.9999Z" fill="#171725"/>
</svg>
