<svg width="24" height="24" viewBox="0 0 24 24" fill="none" xmlns="http://www.w3.org/2000/svg">
<path fill-rule="evenodd" clip-rule="evenodd" d="M3.52075 6.95898C3.52075 5.05618 5.05545 3.52148 6.95825 3.52148H9.24992C9.62961 3.52148 9.93742 3.21368 9.93742 2.83398C9.93742 2.45429 9.62961 2.14648 9.24992 2.14648H6.95825C4.29606 2.14648 2.14575 4.29679 2.14575 6.95898V9.25065C2.14575 9.63035 2.45356 9.93815 2.83325 9.93815C3.21295 9.93815 3.52075 9.63035 3.52075 9.25065V6.95898ZM14.7499 2.14648C14.3702 2.14648 14.0624 2.45429 14.0624 2.83398C14.0624 3.21368 14.3702 3.52148 14.7499 3.52148H17.0416C18.9444 3.52148 20.4791 5.05618 20.4791 6.95898V9.25065C20.4791 9.63035 20.7869 9.93815 21.1666 9.93815C21.5463 9.93815 21.8541 9.63035 21.8541 9.25065V6.95898C21.8541 4.29679 19.7038 2.14648 17.0416 2.14648H14.7499ZM21.1666 14.9798C21.5463 14.9798 21.8541 15.2876 21.8541 15.6673V17.0423C21.8541 19.7045 19.7038 21.8548 17.0416 21.8548H15.6666C15.2869 21.8548 14.9791 21.547 14.9791 21.1673C14.9791 20.7876 15.2869 20.4798 15.6666 20.4798H17.0416C18.9444 20.4798 20.4791 18.9451 20.4791 17.0423V15.6673C20.4791 15.2876 20.7869 14.9798 21.1666 14.9798ZM3.52075 14.7507C3.52075 14.371 3.21295 14.0632 2.83325 14.0632C2.45356 14.0632 2.14575 14.371 2.14575 14.7507V17.0423C2.14575 19.7045 4.29606 21.8548 6.95825 21.8548H9.24992C9.62961 21.8548 9.93742 21.547 9.93742 21.1673C9.93742 20.7876 9.62961 20.4798 9.24992 20.4798H6.95825C5.05545 20.4798 3.52075 18.9451 3.52075 17.0423V14.7507ZM8.59022 8.13262C8.30629 8.41655 8.10409 8.89829 8.10409 9.70898V11.3132H15.8958V9.70898C15.8958 8.89829 15.6935 8.41655 15.4096 8.13262C15.1257 7.84869 14.6439 7.64648 13.8333 7.64648H10.1666C9.35589 7.64648 8.87415 7.84869 8.59022 8.13262ZM17.2708 11.3132V9.70898C17.2708 8.68634 17.0146 7.79309 16.3819 7.16035C15.7492 6.52761 14.8559 6.27148 13.8333 6.27148H10.1666C9.14394 6.27148 8.25069 6.52761 7.61795 7.16035C6.98521 7.79309 6.72909 8.68634 6.72909 9.70898V11.3132H5.58325C5.20356 11.3132 4.89575 11.621 4.89575 12.0007C4.89575 12.3803 5.20356 12.6882 5.58325 12.6882H6.72909V14.2923C6.72909 15.315 6.98521 16.2082 7.61795 16.841C8.25069 17.4737 9.14394 17.7298 10.1666 17.7298H13.8333C14.8559 17.7298 15.7492 17.4737 16.3819 16.841C17.0146 16.2082 17.2708 15.315 17.2708 14.2923V12.6882H18.4166C18.7963 12.6882 19.1041 12.3803 19.1041 12.0007C19.1041 11.621 18.7963 11.3132 18.4166 11.3132H17.2708ZM15.8958 12.6882H8.10409V14.2923C8.10409 15.103 8.30629 15.5848 8.59022 15.8687C8.87415 16.1526 9.35589 16.3548 10.1666 16.3548H13.8333C14.6439 16.3548 15.1257 16.1526 15.4096 15.8687C15.6935 15.5848 15.8958 15.103 15.8958 14.2923V12.6882Z" fill="#171725"/>
</svg>
