<svg width="24" height="24" viewBox="0 0 24 24" fill="none" xmlns="http://www.w3.org/2000/svg">
<path d="M19.7423 15.2004C20.0859 14.8838 20.0859 14.3704 19.7423 14.0538C19.3988 13.7371 18.8417 13.7371 18.4981 14.0538L12.8797 19.2318L12.8797 2.8108C12.8797 2.36301 12.4858 2 11.9999 2C11.514 2 11.1202 2.36301 11.1202 2.8108L11.1202 19.2317L5.50185 14.0538C5.15828 13.7371 4.60125 13.7371 4.25768 14.0538C3.91411 14.3704 3.91411 14.8838 4.25768 15.2004L11.3779 21.7625C11.5429 21.9146 11.7667 22 12 22C12.2333 22 12.4571 21.9146 12.6221 21.7625L19.7423 15.2004Z" fill="#171725"/>
</svg>
