<svg width="24" height="24" viewBox="0 0 24 24" fill="none" xmlns="http://www.w3.org/2000/svg">
<path fill-rule="evenodd" clip-rule="evenodd" d="M21.7957 3.191C22.0681 2.91855 22.0681 2.4768 21.7957 2.20434C21.5232 1.93189 21.0815 1.93189 20.809 2.20434L17.5635 5.44983C15.8911 4.26504 13.9848 3.60931 12 3.60931C8.42048 3.60931 5.16131 5.71964 2.9372 9.21579C2.43004 10.0106 2.2 11.0288 2.2 12.0047C2.2 12.9805 2.43003 13.9987 2.93717 14.7935C3.6398 15.8963 4.45202 16.8672 5.33966 17.6737L2.20434 20.809C1.93189 21.0815 1.93189 21.5232 2.20434 21.7957C2.4768 22.0681 2.91855 22.0681 3.191 21.7957L10.1374 14.8492L10.1398 14.8468L10.1398 14.8468L14.8468 10.1399C14.8476 10.139 14.8484 10.1382 14.8492 10.1374L21.7957 3.191ZM14.311 8.70235L16.5605 6.45285C15.1513 5.50594 13.5933 5.00466 12 5.00466C9.01223 5.00466 6.1506 6.76392 4.11425 9.96517L4.11366 9.96608C3.78382 10.4828 3.59535 11.2226 3.59535 12.0047C3.59535 12.7868 3.78382 13.5265 4.11366 14.0432L4.11398 14.0437C4.76847 15.071 5.51943 15.9604 6.32759 16.6857L8.70233 14.311C8.24229 13.6573 7.97209 12.8619 7.97209 12C7.97209 9.77284 9.77282 7.97211 12 7.97211C12.8619 7.97211 13.6573 8.24231 14.311 8.70235ZM9.36744 12C9.36744 10.5435 10.5435 9.36745 12 9.36745C12.4748 9.36745 12.9177 9.49204 13.3014 9.71191L9.7119 13.3015C9.49202 12.9177 9.36744 12.4748 9.36744 12ZM19.0511 7.67031C19.3513 7.42881 19.7905 7.47643 20.032 7.77667C20.3891 8.22064 20.7399 8.69772 21.0635 9.20756C21.5702 10.0022 21.8 11.0199 21.8 11.9953C21.8 12.9712 21.57 13.9894 21.0628 14.7842C18.8387 18.2804 15.5795 20.3907 12 20.3907C10.7567 20.3907 9.53937 20.1278 8.39903 19.6476C8.04391 19.4981 7.87724 19.089 8.02676 18.7339C8.17629 18.3788 8.58538 18.2121 8.9405 18.3616C9.92109 18.7745 10.9549 18.9953 12 18.9953C14.9878 18.9953 17.8494 17.2361 19.8857 14.0348L19.8863 14.0339C20.2162 13.5172 20.4047 12.7774 20.4047 11.9953C20.4047 11.2132 20.2162 10.4735 19.8863 9.95676L19.8854 9.95522C19.595 9.49762 19.276 9.06306 18.9447 8.65122C18.7032 8.35098 18.7509 7.91181 19.0511 7.67031ZM15.9512 12.7777C16.0211 12.3988 15.7706 12.0349 15.3916 11.9651C15.0127 11.8952 14.6489 12.1457 14.579 12.5247C14.3896 13.5518 13.5425 14.3989 12.5153 14.5883C12.1364 14.6582 11.8859 15.022 11.9558 15.4009C12.0256 15.7799 12.3895 16.0304 12.7684 15.9605C14.3645 15.6662 15.6569 14.3738 15.9512 12.7777Z" fill="#171725"/>
</svg>
