<svg width="24" height="24" viewBox="0 0 24 24" fill="none" xmlns="http://www.w3.org/2000/svg">
<path fill-rule="evenodd" clip-rule="evenodd" d="M12.625 2H21.375C21.5408 2 21.6997 2.06585 21.8169 2.18306C21.9342 2.30027 22 2.45924 22 2.625V21.375C22 21.5408 21.9342 21.6997 21.8169 21.8169C21.6997 21.9342 21.5408 22 21.375 22H17.6088C18.0224 21.4623 18.2477 20.8034 18.25 20.125C18.25 19.9706 18.25 19.9369 17.625 16.1369V9.5H16.375V11.8125C15.9681 11.2883 15.447 10.8638 14.8513 10.5714C14.2556 10.279 13.6011 10.1263 12.9375 10.125C12.622 10.1264 12.3076 10.1626 12 10.2331V2.625C12 2.45924 12.0658 2.30027 12.1831 2.18306C12.3003 2.06585 12.4592 2 12.625 2ZM16.3055 8.03934C16.5111 8.17669 16.7528 8.25 17 8.25C17.3315 8.25 17.6495 8.1183 17.8839 7.88388C18.1183 7.64946 18.25 7.33152 18.25 7C18.25 6.75277 18.1767 6.5111 18.0393 6.30554C17.902 6.09998 17.7068 5.93976 17.4784 5.84515C17.2499 5.75054 16.9986 5.72579 16.7561 5.77402C16.5137 5.82225 16.2909 5.9413 16.1161 6.11612C15.9413 6.29093 15.8223 6.51366 15.774 6.75614C15.7258 6.99861 15.7505 7.24995 15.8451 7.47835C15.9398 7.70676 16.1 7.90199 16.3055 8.03934Z" fill="#171725"/>
<path d="M9.5 5.75C9.33424 5.75 9.17527 5.81585 9.05806 5.93306C8.94085 6.05027 8.875 6.20924 8.875 6.375V11.375H10.125V6.375C10.125 6.20924 10.0592 6.05027 9.94194 5.93306C9.82473 5.81585 9.66576 5.75 9.5 5.75Z" fill="#171725"/>
<path fill-rule="evenodd" clip-rule="evenodd" d="M16.025 14.0994C15.9487 13.4839 15.6899 12.9053 15.282 12.4382C14.8741 11.971 14.3357 11.6366 13.7362 11.478C13.1366 11.3195 12.5033 11.3439 11.9177 11.5484C11.3322 11.7528 10.8212 12.1277 10.4506 12.625H8.54938C8.17929 12.1287 7.66936 11.7542 7.08499 11.5497C6.50063 11.3452 5.86848 11.3199 5.26966 11.4771C4.67084 11.6344 4.13264 11.9669 3.72412 12.4321C3.31561 12.8973 3.0554 13.474 2.97687 14.0881C2 20.0469 2 20.0544 2 20.125C2 20.6223 2.19754 21.0992 2.54917 21.4508C2.90081 21.8025 3.37772 22 3.875 22C4.25968 22.0006 4.63498 21.8813 4.94875 21.6588L8.12937 19.5H10.8706L14.04 21.6513C14.3204 21.8502 14.65 21.9682 14.9929 21.9924C15.3358 22.0166 15.6788 21.9461 15.9843 21.7886C16.2898 21.631 16.5462 21.3925 16.7253 21.0991C16.9044 20.8058 16.9995 20.4688 17 20.125C17 20.0544 17 20.0469 16.025 14.0994ZM6.0625 15.75C5.81527 15.75 5.5736 15.6767 5.36804 15.5393C5.16248 15.402 5.00226 15.2068 4.90765 14.9784C4.81304 14.75 4.78829 14.4986 4.83652 14.2561C4.88475 14.0137 5.0038 13.7909 5.17862 13.6161C5.35343 13.4413 5.57616 13.3223 5.81864 13.274C6.06111 13.2258 6.31245 13.2505 6.54085 13.3452C6.76926 13.4398 6.96449 13.6 7.10184 13.8055C7.23919 14.0111 7.3125 14.2528 7.3125 14.5C7.3125 14.8315 7.1808 15.1495 6.94638 15.3839C6.71196 15.6183 6.39402 15.75 6.0625 15.75ZM12.9375 15.75C12.6903 15.75 12.4486 15.6767 12.243 15.5393C12.0375 15.402 11.8773 15.2068 11.7826 14.9784C11.688 14.75 11.6633 14.4986 11.7115 14.2561C11.7597 14.0137 11.8788 13.7909 12.0536 13.6161C12.2284 13.4413 12.4512 13.3223 12.6936 13.274C12.9361 13.2258 13.1874 13.2505 13.4159 13.3452C13.6443 13.4398 13.8395 13.6 13.9768 13.8055C14.1142 14.0111 14.1875 14.2528 14.1875 14.5C14.1875 14.8315 14.0558 15.1495 13.8214 15.3839C13.587 15.6183 13.269 15.75 12.9375 15.75Z" fill="#171725"/>
</svg>
