<svg width="24" height="24" viewBox="0 0 24 24" fill="none" xmlns="http://www.w3.org/2000/svg">
<path fill-rule="evenodd" clip-rule="evenodd" d="M8.60481 4.05993C8.99404 3.82835 9.51818 3.95734 9.76706 4.37198L9.86548 4.54197L9.8663 4.5434C10.3591 5.40226 11.1064 5.98735 11.9965 5.98735C12.8861 5.98735 13.6355 5.40289 14.1329 4.54486L14.133 4.54456L14.2329 4.37198C14.4818 3.95734 15.006 3.82835 15.3952 4.05993L15.3951 4.06001L15.4054 4.06587L17.0139 4.98637L17.0143 4.98659C17.5232 5.27735 17.6984 5.93628 17.4075 6.4401C16.9103 7.2983 16.7767 8.23884 17.221 9.00987C17.6653 9.78095 18.546 10.1366 19.536 10.1366C20.1203 10.1366 20.6053 10.6171 20.6053 11.2059V12.8423C20.6053 13.4265 20.1248 13.9116 19.536 13.9116C18.546 13.9116 17.6653 14.2672 17.221 15.0383C16.777 15.8088 16.9101 16.7486 17.4066 17.6064C17.6998 18.1215 17.5219 18.7715 17.0143 19.0616L17.0139 19.0618L15.4054 19.9823L15.4053 19.9822L15.3952 19.9882C15.006 20.2198 14.4818 20.0908 14.2329 19.6762L14.1345 19.5062L14.1338 19.505C13.6411 18.646 12.8937 18.0608 12.0035 18.0608C11.1139 18.0608 10.3645 18.6453 9.86715 19.5033L9.86697 19.5036L9.76704 19.6762C9.51815 20.0908 8.99403 20.2198 8.60481 19.9882L8.60486 19.9881L8.59462 19.9823L6.98606 19.0618L6.98568 19.0616C6.47691 18.7708 6.30165 18.112 6.59237 17.6082C7.08971 16.75 7.22336 15.8094 6.77901 15.0383C6.33466 14.2672 5.45401 13.9116 4.46397 13.9116C3.8752 13.9116 3.3947 13.4265 3.3947 12.8423V11.2059C3.3947 10.6216 3.8752 10.1366 4.46397 10.1366C5.45401 10.1366 6.33466 9.78095 6.77901 9.00987C7.22332 8.23886 7.08973 7.29834 6.5925 6.44017C6.30159 5.93633 6.47683 5.27736 6.98568 4.98659L6.98606 4.98637L8.59462 4.06587L8.59467 4.06596L8.60481 4.05993ZM6.5925 6.44017C6.59239 6.43998 6.59228 6.43979 6.59217 6.4396L5.98884 6.7893L6.59265 6.44043C6.5926 6.44034 6.59255 6.44025 6.5925 6.44017ZM10.9675 3.66195C10.3427 2.61173 8.97528 2.22078 7.89724 2.85803L6.29372 3.77565L6.29357 3.77573L6.29334 3.77587C5.11035 4.45214 4.70923 5.96852 5.38503 7.13817L5.38551 7.139C5.73413 7.74046 5.67942 8.12467 5.5706 8.3135C5.46172 8.50244 5.15687 8.74188 4.46397 8.74188C3.10016 8.74188 2 9.85611 2 11.2059V12.8423C2 14.192 3.10016 15.3063 4.46397 15.3063C5.15687 15.3063 5.46172 15.5457 5.5706 15.7347C5.67942 15.9235 5.73413 16.3077 5.38551 16.9091L5.38503 16.91C4.70923 18.0796 5.11034 19.596 6.29334 20.2723L6.29372 20.2725L7.89732 21.1902C8.97535 21.8274 10.3427 21.4364 10.9675 20.3862L10.9676 20.3862L10.9717 20.3791L11.0738 20.2027L11.074 20.2024C11.4227 19.6009 11.7843 19.4555 12.0035 19.4555C12.2216 19.4555 12.5805 19.5997 12.9245 20.1998L12.926 20.2024L13.0283 20.3791L13.0283 20.3791L13.0325 20.3862C13.6573 21.4364 15.0247 21.8274 16.1027 21.1902L17.7063 20.2725L17.7067 20.2723C18.8905 19.5955 19.2891 18.0896 18.6166 16.9129L18.6166 16.9129L18.6145 16.9091C18.2659 16.3077 18.3206 15.9235 18.4294 15.7347C18.5383 15.5457 18.8431 15.3063 19.536 15.3063C20.8998 15.3063 22 14.192 22 12.8423V11.2059C22 9.84204 20.8858 8.74188 19.536 8.74188C18.8431 8.74188 18.5383 8.50244 18.4294 8.3135C18.3206 8.12467 18.2659 7.74046 18.6145 7.139L18.615 7.13817C19.2908 5.9684 18.8896 4.45182 17.7063 3.77565L16.1028 2.85804C15.0247 2.22077 13.6573 2.61173 13.0325 3.66195L13.0324 3.66192L13.0283 3.6691L12.9262 3.84546L12.926 3.84576C12.5773 4.44727 12.2157 4.59265 11.9965 4.59265C11.7784 4.59265 11.4195 4.44849 11.0755 3.84835L11.074 3.84576L10.9717 3.6691L10.9717 3.66908L10.9675 3.66195ZM9.9033 12.0241C9.9033 10.8687 10.8399 9.93203 11.9954 9.93203C13.1508 9.93203 14.0874 10.8687 14.0874 12.0241C14.0874 13.1795 13.1508 14.1161 11.9954 14.1161C10.8399 14.1161 9.9033 13.1795 9.9033 12.0241ZM11.9954 8.53733C10.0697 8.53733 8.5086 10.0984 8.5086 12.0241C8.5086 13.9498 10.0697 15.5108 11.9954 15.5108C13.921 15.5108 15.4821 13.9498 15.4821 12.0241C15.4821 10.0984 13.921 8.53733 11.9954 8.53733Z" fill="#171725"/>
</svg>
