<svg width="24" height="24" viewBox="0 0 24 24" fill="none" xmlns="http://www.w3.org/2000/svg">
<path fill-rule="evenodd" clip-rule="evenodd" d="M11.5418 2.14648C6.35265 2.14648 2.146 6.35314 2.146 11.5423C2.146 16.7315 6.35265 20.9382 11.5418 20.9382C16.731 20.9382 20.9377 16.7315 20.9377 11.5423C20.9377 6.35314 16.731 2.14648 11.5418 2.14648ZM3.521 11.5423C3.521 7.11253 7.11205 3.52148 11.5418 3.52148C15.9716 3.52148 19.5627 7.11253 19.5627 11.5423C19.5627 15.9721 15.9716 19.5632 11.5418 19.5632C7.11205 19.5632 3.521 15.9721 3.521 11.5423Z" fill="#171725"/>
<path d="M19.8196 18.8478C19.5511 18.5794 19.1158 18.5794 18.8474 18.8478C18.5789 19.1163 18.5789 19.5516 18.8474 19.8201L20.6807 21.6535C20.9492 21.9219 21.3845 21.9219 21.653 21.6535C21.9214 21.385 21.9214 20.9497 21.653 20.6812L19.8196 18.8478Z" fill="#171725"/>
</svg>
