<svg width="24" height="24" viewBox="0 0 24 24" fill="none" xmlns="http://www.w3.org/2000/svg">
<path d="M18.2706 15.8514C18.0564 15.8514 17.8421 15.7714 17.673 15.6C17.346 15.2686 17.346 14.72 17.673 14.3886L19.9619 12.0686L17.673 9.74857C17.346 9.41714 17.346 8.86857 17.673 8.53714C18 8.20572 18.5412 8.20572 18.8682 8.53714L21.7548 11.4629C22.0817 11.7943 22.0817 12.3429 21.7548 12.6743L18.8682 15.6C18.6991 15.7714 18.4848 15.8514 18.2706 15.8514Z" fill="#171725"/>
<path d="M21.0782 12.9257H9.61099C9.1487 12.9257 8.76533 12.5371 8.76533 12.0686C8.76533 11.6 9.1487 11.2114 9.61099 11.2114H21.0782C21.5405 11.2114 21.9239 11.6 21.9239 12.0686C21.9239 12.5371 21.5405 12.9257 21.0782 12.9257Z" fill="#171725"/>
<path d="M11.8661 22C6.0592 22 2 17.8857 2 12C2 6.11429 6.0592 2 11.8661 2C12.3284 2 12.7118 2.38857 12.7118 2.85714C12.7118 3.32571 12.3284 3.71429 11.8661 3.71429C7.05144 3.71429 3.69133 7.12 3.69133 12C3.69133 16.88 7.05144 20.2857 11.8661 20.2857C12.3284 20.2857 12.7118 20.6743 12.7118 21.1429C12.7118 21.6114 12.3284 22 11.8661 22Z" fill="#171725"/>
</svg>
