<svg width="24" height="24" viewBox="0 0 24 24" fill="none" xmlns="http://www.w3.org/2000/svg">
<path fill-rule="evenodd" clip-rule="evenodd" d="M12 7.46133C9.72737 7.46133 7.88989 9.29881 7.88989 11.5714C7.88989 13.8441 9.72737 15.6815 12 15.6815C14.2726 15.6815 16.1101 13.8441 16.1101 11.5714C16.1101 9.29881 14.2726 7.46133 12 7.46133ZM9.31372 11.5714C9.31372 10.0852 10.5137 8.88516 12 8.88516C13.4863 8.88516 14.6863 10.0852 14.6863 11.5714C14.6863 13.0577 13.4863 14.2577 12 14.2577C10.5137 14.2577 9.31372 13.0577 9.31372 11.5714Z" fill="#171725"/>
<path fill-rule="evenodd" clip-rule="evenodd" d="M12 3C8.34743 3 5.02175 5.15339 2.75225 8.7209C2.23474 9.53192 2 10.5709 2 11.5667C2 12.5623 2.23465 13.601 2.75195 14.412C5.02146 17.9798 8.34727 20.1334 12 20.1334C15.6527 20.1334 18.9785 17.9798 21.248 14.412C21.7654 13.601 22 12.5623 22 11.5667C22 10.5711 21.7653 9.53232 21.248 8.72136C18.9785 5.15358 15.6527 3 12 3ZM3.95332 9.48556C6.03122 6.21898 8.95125 4.42383 12 4.42383C15.0487 4.42383 17.9688 6.21898 20.0467 9.48556L20.0473 9.4865C20.3839 10.0138 20.5762 10.7686 20.5762 11.5667C20.5762 12.3647 20.3839 13.1196 20.0473 13.6469L20.0467 13.6478C17.9688 16.9144 15.0487 18.7095 12 18.7095C8.95126 18.7095 6.03122 16.9144 3.95332 13.6478L3.95272 13.6469C3.61614 13.1196 3.42383 12.3647 3.42383 11.5667C3.42383 10.7686 3.61614 10.0138 3.95272 9.4865L3.95332 9.48556Z" fill="#171725"/>
</svg>
