<svg width="24" height="24" viewBox="0 0 24 24" fill="none" xmlns="http://www.w3.org/2000/svg">
<path fill-rule="evenodd" clip-rule="evenodd" d="M9.2093 2C8.82399 2 8.51163 2.31236 8.51163 2.69767C8.51163 3.08299 8.82399 3.39535 9.2093 3.39535H14.7907C15.176 3.39535 15.4884 3.08299 15.4884 2.69767C15.4884 2.31236 15.176 2 14.7907 2H9.2093ZM5.72093 5.02326C5.72093 4.63794 6.03329 4.32558 6.4186 4.32558H17.5814C17.9667 4.32558 18.2791 4.63794 18.2791 5.02326C18.2791 5.40857 17.9667 5.72093 17.5814 5.72093H6.4186C6.03329 5.72093 5.72093 5.40857 5.72093 5.02326ZM4.45148 8.96474C3.81896 9.55208 3.39535 10.5051 3.39535 12V16.6512C3.39535 18.1461 3.81896 19.0991 4.45148 19.6864C5.09335 20.2824 6.06044 20.6047 7.34884 20.6047H16.6512C17.9396 20.6047 18.9066 20.2824 19.5485 19.6864C20.181 19.0991 20.6047 18.1461 20.6047 16.6512V12C20.6047 10.5051 20.181 9.55208 19.5485 8.96474C18.9066 8.36871 17.9396 8.04651 16.6512 8.04651H7.34884C6.06044 8.04651 5.09335 8.36871 4.45148 8.96474ZM3.50201 7.94224C4.48804 7.02664 5.84654 6.65116 7.34884 6.65116H16.6512C18.1535 6.65116 19.512 7.02664 20.498 7.94224C21.4934 8.86653 22 10.2391 22 12V16.6512C22 18.412 21.4934 19.7846 20.498 20.7089C19.512 21.6245 18.1535 22 16.6512 22H7.34884C5.84654 22 4.48804 21.6245 3.50201 20.7089C2.50662 19.7846 2 18.412 2 16.6512V12C2 10.2391 2.50662 8.86653 3.50201 7.94224Z" fill="#171725"/>
</svg>
