<svg width="24" height="24" viewBox="0 0 24 24" fill="none" xmlns="http://www.w3.org/2000/svg">
<path d="M20.9976 11.4988C20.9976 16.7448 16.7448 20.9976 11.4988 20.9976C6.25275 20.9976 2 16.7448 2 11.4988C2 6.25275 6.25275 2 11.4988 2C16.7448 2 20.9976 6.25275 20.9976 11.4988Z" fill="#171725"/>
<path d="M20.8077 21.7975C20.9376 21.9275 21.1176 21.9975 21.2976 21.9975C21.4776 21.9975 21.6575 21.9275 21.7975 21.7975C22.0675 21.5176 22.0675 21.0776 21.7975 20.8077L19.9378 18.9479C19.6578 18.6779 19.2179 18.6779 18.9479 18.9479C18.6779 19.2279 18.6779 19.6678 18.9479 19.9378L20.8077 21.7975Z" fill="#171725"/>
</svg>
