<svg width="24" height="24" viewBox="0 0 24 24" fill="none" xmlns="http://www.w3.org/2000/svg">
<path d="M21.3 18.24L20.36 17.3C20.85 16.56 21.14 15.67 21.14 14.71C21.14 12.11 19.03 10 16.43 10C13.83 10 11.72 12.11 11.72 14.71C11.72 17.31 13.83 19.42 16.43 19.42C17.39 19.42 18.27 19.13 19.02 18.64L19.96 19.58C20.15 19.77 20.39 19.86 20.64 19.86C20.89 19.86 21.13 19.77 21.32 19.58C21.67 19.22 21.67 18.62 21.3 18.24Z" fill="#171725"/>
<path d="M20.16 4.02V6.24C20.16 7.05 19.66 8.06 19.16 8.57L18.98 8.73C18.84 8.86 18.63 8.89 18.45 8.83C18.25 8.76 18.05 8.71 17.85 8.66C17.41 8.55 16.94 8.5 16.46 8.5C13.01 8.5 10.21 11.3 10.21 14.75C10.21 15.89 10.52 17.01 11.11 17.97C11.61 18.81 12.31 19.51 13.07 19.98C13.3 20.13 13.39 20.45 13.19 20.63C13.12 20.69 13.05 20.74 12.98 20.79L11.58 21.7C10.28 22.51 8.49 21.6 8.49 19.98V14.63C8.49 13.92 8.09 13.01 7.69 12.51L3.9 8.47C3.4 7.96 3 7.05 3 6.45V4.12C3 2.91 3.9 2 4.99 2H18.17C19.26 2 20.16 2.91 20.16 4.02Z" fill="#171725"/>
</svg>
