<svg width="24" height="24" viewBox="0 0 24 24" fill="none" xmlns="http://www.w3.org/2000/svg">
<path d="M20.1 9.20871C18.29 9.20871 17.55 7.92871 18.45 6.35871C18.97 5.44871 18.66 4.28871 17.75 3.76871L16.02 2.77871C15.23 2.30871 14.21 2.58871 13.74 3.37871L13.63 3.56871C12.73 5.13871 11.25 5.13871 10.34 3.56871L10.23 3.37871C9.78 2.58871 8.76 2.30871 7.97 2.77871L6.24 3.76871C5.33 4.28871 5.02 5.45871 5.54 6.36871C6.45 7.92871 5.71 9.20871 3.9 9.20871C2.86 9.20871 2 10.0587 2 11.1087V12.8687C2 13.9087 2.85 14.7687 3.9 14.7687C5.71 14.7687 6.45 16.0487 5.54 17.6187C5.02 18.5287 5.33 19.6887 6.24 20.2087L7.97 21.1987C8.76 21.6687 9.78 21.3887 10.25 20.5987L10.36 20.4087C11.26 18.8387 12.74 18.8387 13.65 20.4087L13.76 20.5987C14.23 21.3887 15.25 21.6687 16.04 21.1987L17.77 20.2087C18.68 19.6887 18.99 18.5187 18.47 17.6187C17.56 16.0487 18.3 14.7687 20.11 14.7687C21.15 14.7687 22.01 13.9187 22.01 12.8687V11.1087C22 10.0687 21.15 9.20871 20.1 9.20871ZM12 15.2387C10.21 15.2387 8.75 13.7787 8.75 11.9887C8.75 10.1987 10.21 8.73871 12 8.73871C13.79 8.73871 15.25 10.1987 15.25 11.9887C15.25 13.7787 13.79 15.2387 12 15.2387Z" fill="#171725"/>
</svg>
