<svg width="24" height="24" viewBox="0 0 24 24" fill="none" xmlns="http://www.w3.org/2000/svg">
<path fill-rule="evenodd" clip-rule="evenodd" d="M12.0046 14.9769C12.51 14.9769 12.9197 15.3934 12.9197 15.9071V16.0002C12.9197 16.5139 12.51 16.9304 12.0046 16.9304C11.4992 16.9304 11.0895 16.5139 11.0895 16.0002V15.9071C11.0895 15.3934 11.4992 14.9769 12.0046 14.9769Z" fill="#171725"/>
<path fill-rule="evenodd" clip-rule="evenodd" d="M12.0046 7.34883C12.3836 7.34883 12.6909 7.66119 12.6909 8.04651V12.9302C12.6909 13.3155 12.3836 13.6279 12.0046 13.6279C11.6255 13.6279 11.3183 13.3155 11.3183 12.9302V8.04651C11.3183 7.66119 11.6255 7.34883 12.0046 7.34883Z" fill="#171725"/>
<path fill-rule="evenodd" clip-rule="evenodd" d="M13.0995 3.6934C12.4129 3.29512 11.5757 3.29714 10.9019 3.69258L5.46868 6.8818C4.78975 7.28835 4.37265 8.0276 4.37265 8.81863V15.1814C4.37265 15.9847 4.79211 16.7212 5.46618 17.1167L10.8992 20.3059L10.9005 20.3067C11.5872 20.7049 12.4243 20.7029 13.0981 20.3075L18.5293 17.1194L18.5314 17.1182C19.2103 16.7116 19.6274 15.9724 19.6274 15.1814V8.81863C19.6274 8.01953 19.2113 7.28896 18.5313 6.8818L18.5293 6.88057L13.1008 3.69412L13.0995 3.6934ZM10.2156 2.48416C11.3166 1.83798 12.6751 1.83976 13.7818 2.48262L13.7845 2.48419L19.2247 5.67753C20.3188 6.33108 21 7.51621 21 8.81863V15.1814C21 16.4733 20.3198 17.6683 19.2247 18.3225L19.2202 18.3252L13.7845 21.5158C12.6834 22.162 11.3249 22.1603 10.2182 21.5174L10.2155 21.5158L4.77988 18.3252C3.67866 17.6789 3 16.4804 3 15.1814V8.81863C3 7.52674 3.68019 6.33173 4.77532 5.67755L4.77982 5.67486L10.2156 2.48416Z" fill="#171725"/>
</svg>
