<svg width="24" height="24" viewBox="0 0 24 24" fill="none" xmlns="http://www.w3.org/2000/svg">
<path fill-rule="evenodd" clip-rule="evenodd" d="M12 3.42969C15.56 3.42969 18.94 5.51969 21.25 9.14969C22.25 10.7197 22.25 13.2797 21.25 14.8397C20.09 16.6597 18.67 18.0897 17.09 19.0697C15.51 20.0397 13.78 20.5597 12 20.5597C8.44 20.5597 5.06 18.4797 2.75 14.8397C1.75 13.2697 1.75 10.7197 2.75 9.14969C3.91 7.32969 5.33 5.89969 6.91 4.91969C8.49 3.94969 10.22 3.42969 12 3.42969ZM7.96 11.9997C7.96 14.2297 9.76 16.0397 12 16.0397C14.24 16.0397 16.04 14.2297 16.04 11.9997C16.04 9.76969 14.24 7.95969 12 7.95969C9.76 7.95969 7.96 9.76969 7.96 11.9997ZM9.15 11.9997C9.15 10.4197 10.43 9.13968 12 9.13968C13.57 9.13968 14.86 10.4297 14.86 11.9997C14.86 13.5697 13.57 14.8497 12 14.8497C10.43 14.8497 9.15 13.5697 9.15 11.9997Z" fill="#171725"/>
</svg>
