<svg width="24" height="24" viewBox="0 0 24 24" fill="none" xmlns="http://www.w3.org/2000/svg">
<path d="M7.29793 12.07C7.29793 11.66 7.68614 11.32 8.15428 11.32H14.4113V2.86C14.3999 2.38 13.966 2 13.418 2C6.69278 2 2 6.11 2 12C2 17.89 6.69278 22 13.418 22C13.9546 22 14.3999 21.62 14.3999 21.14V12.81H8.15428C7.67473 12.82 7.29793 12.48 7.29793 12.07Z" fill="#171725"/>
<path d="M21.7531 11.54L18.5104 8.69C18.1792 8.4 17.6312 8.4 17.3001 8.69C16.9689 8.98 16.9689 9.46 17.3001 9.75L19.0813 11.31H14.3999V12.81L19.0698 12.81L17.2886 14.37C16.9575 14.66 16.9575 15.14 17.2886 15.43C17.4599 15.58 17.6769 15.65 17.8938 15.65C18.1107 15.65 18.3277 15.58 18.499 15.43L21.7417 12.58C22.0842 12.3 22.0842 11.83 21.7531 11.54Z" fill="#171725"/>
</svg>
