<svg width="24" height="24" viewBox="0 0 24 24" fill="none" xmlns="http://www.w3.org/2000/svg">
<path d="M6.90233 15.9628C6.72558 15.9628 6.54884 15.8977 6.4093 15.7581C6.13953 15.4884 6.13953 15.0419 6.4093 14.7721L9.24651 11.9349C9.51628 11.6651 9.96279 11.6651 10.2326 11.9349C10.5023 12.2047 10.5023 12.6512 10.2326 12.9209L7.39535 15.7581C7.25581 15.8884 7.07907 15.9628 6.90233 15.9628Z" fill="#171725"/>
<path d="M9.76744 15.9907C9.5907 15.9907 9.41395 15.9256 9.27442 15.786L6.43721 12.9488C6.16744 12.6791 6.16744 12.2326 6.43721 11.9628C6.70698 11.693 7.15349 11.693 7.42326 11.9628L10.2605 14.8C10.5302 15.0698 10.5302 15.5163 10.2605 15.786C10.1209 15.9256 9.94419 15.9907 9.76744 15.9907Z" fill="#171725"/>
<path d="M13.4326 14.7907C12.9209 14.7907 12.493 14.3721 12.493 13.8605C12.493 13.3488 12.9023 12.9302 13.414 12.9302H13.4326C13.9442 12.9302 14.3628 13.3488 14.3628 13.8605C14.3628 14.3721 13.9535 14.7907 13.4326 14.7907Z" fill="#171725"/>
<path d="M17.0977 14.7907C16.586 14.7907 16.1581 14.3721 16.1581 13.8605C16.1581 13.3488 16.5674 12.9302 17.0791 12.9302H17.0977C17.6093 12.9302 18.0279 13.3488 18.0279 13.8605C18.0279 14.3721 17.6093 14.7907 17.0977 14.7907Z" fill="#171725"/>
<path d="M15.2558 16.6233C14.7442 16.6233 14.3256 16.214 14.3256 15.7023V15.6837C14.3256 15.1721 14.7442 14.7535 15.2558 14.7535C15.7674 14.7535 16.186 15.1721 16.186 15.6837C16.186 16.1953 15.7767 16.6233 15.2558 16.6233Z" fill="#171725"/>
<path d="M15.2558 12.9581C14.7442 12.9581 14.3256 12.5488 14.3256 12.0372V12.0186C14.3256 11.507 14.7442 11.0884 15.2558 11.0884C15.7674 11.0884 16.186 11.507 16.186 12.0186C16.186 12.5302 15.7767 12.9581 15.2558 12.9581Z" fill="#171725"/>
<path d="M14.7907 22H9.2093C4.15814 22 2 19.8419 2 14.7907V12.9302C2 7.87907 4.15814 5.72093 9.2093 5.72093H14.7907C19.8419 5.72093 22 7.87907 22 12.9302V14.7907C22 19.8419 19.8419 22 14.7907 22ZM9.2093 7.11628C4.92093 7.11628 3.39535 8.64186 3.39535 12.9302V14.7907C3.39535 19.0791 4.92093 20.6047 9.2093 20.6047H14.7907C19.0791 20.6047 20.6047 19.0791 20.6047 14.7907V12.9302C20.6047 8.64186 19.0791 7.11628 14.7907 7.11628H9.2093Z" fill="#171725"/>
<path d="M12.9209 7.11628H11.9907C11.0977 7.11628 10.3628 6.3814 10.3628 5.48837C10.3628 4.59535 11.0884 3.86047 11.9814 3.86047C12.1302 3.86047 12.2326 3.75814 12.2419 3.62791L12.2512 2.68837C12.2605 2.30698 12.5674 2 12.9488 2H12.9581C13.3395 2.0093 13.6558 2.32558 13.6465 2.70698L13.6372 3.64651C13.6279 4.53023 12.893 5.25581 12.0093 5.25581C11.8605 5.25581 11.7674 5.35814 11.7674 5.48837C11.7674 5.6186 11.8698 5.72093 12 5.72093H12.9302C13.3116 5.72093 13.6279 6.03721 13.6279 6.4186C13.6279 6.8 13.3023 7.11628 12.9209 7.11628Z" fill="#171725"/>
</svg>
