<svg width="24" height="24" viewBox="0 0 24 24" fill="none" xmlns="http://www.w3.org/2000/svg">
<path fill-rule="evenodd" clip-rule="evenodd" d="M7.86977 4.41309C5.40252 4.41309 3.39535 6.44861 3.39535 8.97268C3.39535 12.0349 4.79133 14.4884 6.54812 16.3113C8.31333 18.1429 10.3999 19.2901 11.6487 19.7218L11.6555 19.7242L11.6555 19.7242C11.7157 19.7458 11.8406 19.7687 12 19.7687C12.1594 19.7687 12.2843 19.7458 12.3445 19.7242L12.3513 19.7218L12.3513 19.7218C13.6001 19.2901 15.6867 18.1429 17.4519 16.3113C19.2087 14.4884 20.6047 12.0349 20.6047 8.97268C20.6047 6.44861 18.5975 4.41309 16.1302 4.41309C14.677 4.41309 13.3739 5.12823 12.5601 6.23802C12.4285 6.41751 12.2208 6.52332 12 6.52332C11.7792 6.52332 11.5715 6.41751 11.4399 6.23802C10.6256 5.12765 9.3316 4.41309 7.86977 4.41309ZM2 8.97268C2 5.6748 4.62538 3 7.86977 3C9.48534 3 10.9438 3.66508 12.0003 4.73784C13.059 3.66476 14.523 3 16.1302 3C19.3746 3 22 5.6748 22 8.97268C22 12.5049 20.382 15.294 18.4504 17.2983C16.5287 19.2923 14.2544 20.5564 12.8053 21.0581C12.5501 21.1486 12.2579 21.1818 12 21.1818C11.7421 21.1818 11.4499 21.1486 11.1947 21.0581C9.74562 20.5564 7.47134 19.2923 5.54955 17.2983C3.61797 15.294 2 12.5049 2 8.97268Z" fill="#171725"/>
</svg>
