<svg width="24" height="24" viewBox="0 0 24 24" fill="none" xmlns="http://www.w3.org/2000/svg">
<path d="M4.25768 8.79958C3.91411 9.11622 3.91411 9.62959 4.25768 9.94623C4.60125 10.2629 5.15828 10.2629 5.50185 9.94623L11.1203 4.76818L11.1203 21.1892C11.1203 21.637 11.5142 22 12.0001 22C12.486 22 12.8798 21.637 12.8798 21.1892L12.8798 4.76833L18.4981 9.94623C18.8417 10.2629 19.3988 10.2629 19.7423 9.94623C20.0859 9.62959 20.0859 9.11622 19.7423 8.79958L12.6221 2.23748C12.4571 2.08542 12.2333 2 12 2C11.7667 2 11.5429 2.08542 11.3779 2.23748L4.25768 8.79958Z" fill="#171725"/>
</svg>
