<svg width="24" height="24" viewBox="0 0 24 24" fill="none" xmlns="http://www.w3.org/2000/svg">
<path d="M7.80292 22H16.1871C19.8289 22 22 19.83 22 16.19V7.82C22 4.17 19.8289 2 16.1871 2L7.81293 2C4.17112 2 2.00004 4.17 2.00004 7.81L2.00003 16.19C1.99003 19.83 4.16111 22 7.80292 22ZM5.46176 11.47L9.7539 7.18C9.90397 7.03 10.0941 6.96 10.2842 6.96C10.4743 6.96 10.6644 7.03 10.8144 7.18C11.1046 7.47 11.1046 7.95 10.8144 8.24L7.80293 11.25L17.998 11.25C18.4082 11.25 18.7484 11.59 18.7484 12C18.7484 12.41 18.4082 12.75 17.998 12.75L7.80293 12.75L10.8144 15.76C11.1046 16.05 11.1046 16.53 10.8144 16.82C10.5243 17.11 10.044 17.11 9.7539 16.82L5.46176 12.53C5.32169 12.39 5.24165 12.2 5.24165 12C5.24165 11.8 5.32169 11.61 5.46176 11.47Z" fill="#171725"/>
</svg>
