<svg width="24" height="24" viewBox="0 0 24 24" fill="none" xmlns="http://www.w3.org/2000/svg">
<path d="M17.8974 4H15.5897V2.75C15.5897 2.34 15.241 2 14.8205 2C14.4 2 14.0513 2.34 14.0513 2.75V21.25C14.0513 21.66 14.4 22 14.8205 22C15.241 22 15.5897 21.66 15.5897 21.25V20H17.8974C20.1641 20 22 18.21 22 16V8C22 5.79 20.1641 4 17.8974 4Z" fill="#171725"/>
<path d="M6.10256 4C3.8359 4 2 5.79 2 8V16C2 18.21 3.8359 20 6.10256 20H11.2308C11.7949 20 12.2564 19.55 12.2564 19V5C12.2564 4.45 11.7949 4 11.2308 4H6.10256ZM6.27692 12.38C6.22564 12.5 6.15385 12.61 6.06154 12.71C5.95897 12.8 5.84615 12.87 5.72308 12.92C5.6 12.97 5.46667 13 5.33333 13C5.2 13 5.06667 12.97 4.94359 12.92C4.82051 12.87 4.70769 12.8 4.60513 12.71C4.51282 12.61 4.44103 12.5 4.37949 12.38C4.32821 12.26 4.30769 12.13 4.30769 12C4.30769 11.74 4.42051 11.48 4.60513 11.29C4.65641 11.25 4.70769 11.21 4.75897 11.17C4.82051 11.13 4.88205 11.1 4.94359 11.08C5.00513 11.05 5.06667 11.03 5.12821 11.02C5.47692 10.95 5.82564 11.06 6.06154 11.29C6.24615 11.48 6.35897 11.74 6.35897 12C6.35897 12.13 6.32821 12.26 6.27692 12.38ZM9.86667 12.38C9.81539 12.5 9.74359 12.61 9.65128 12.71C9.54872 12.8 9.4359 12.87 9.31282 12.92C9.18974 12.97 9.05641 13 8.92308 13C8.78974 13 8.65641 12.97 8.53333 12.92C8.41026 12.87 8.29744 12.8 8.19487 12.71C8 12.52 7.89744 12.27 7.89744 12C7.89744 11.87 7.92821 11.74 7.97949 11.62C8.03077 11.49 8.10256 11.39 8.19487 11.29C8.57436 10.92 9.26154 10.92 9.65128 11.29C9.8359 11.48 9.94872 11.74 9.94872 12C9.94872 12.13 9.91795 12.26 9.86667 12.38Z" fill="#171725"/>
</svg>
