<svg width="24" height="24" viewBox="0 0 24 24" fill="none" xmlns="http://www.w3.org/2000/svg">
<path fill-rule="evenodd" clip-rule="evenodd" d="M7.60976 5.72093C7.01566 5.72093 6.52002 5.73957 6.09372 5.79764C6.08598 5.79869 6.07822 5.79963 6.07044 5.80045C4.88445 5.92514 4.33067 6.23203 4.00988 6.69651C3.64572 7.22377 3.46341 8.10922 3.46341 9.67442V14.3256C3.46341 15.8908 3.64572 16.7762 4.00988 17.3035C4.33067 17.768 4.88445 18.0749 6.07044 18.1996C6.07822 18.2004 6.08598 18.2013 6.09372 18.2024C6.52002 18.2604 7.01566 18.2791 7.60976 18.2791H11.0439C11.448 18.2791 11.7756 18.5914 11.7756 18.9767C11.7756 19.3621 11.448 19.6744 11.0439 19.6744H7.60976C6.99863 19.6744 6.42507 19.6561 5.89847 19.5853C4.52416 19.4391 3.45283 19.034 2.78768 18.0709C2.16403 17.168 2 15.9046 2 14.3256V9.67442C2 8.09543 2.16403 6.83205 2.78768 5.92908C3.45283 4.96602 4.52417 4.56085 5.89848 4.41473C6.42507 4.34388 6.99863 4.32558 7.60976 4.32558H10.9854C11.3895 4.32558 11.7171 4.63794 11.7171 5.02326C11.7171 5.40857 11.3895 5.72093 10.9854 5.72093H7.60976Z" fill="#171725"/>
<path fill-rule="evenodd" clip-rule="evenodd" d="M14.2146 5.02326C14.2146 4.63794 14.5422 4.32558 14.9463 4.32558H16.3902C17.0014 4.32558 17.5749 4.34388 18.1015 4.41473C19.4758 4.56085 20.5472 4.96602 21.2123 5.92908C21.836 6.83205 22 8.09543 22 9.67442V14.3256C22 15.9046 21.836 17.168 21.2123 18.0709C20.5472 19.034 19.4758 19.4391 18.1015 19.5853C17.5749 19.6561 17.0014 19.6744 16.3902 19.6744H14.9463C14.5422 19.6744 14.2146 19.3621 14.2146 18.9767C14.2146 18.5914 14.5422 18.2791 14.9463 18.2791H16.3902C16.9843 18.2791 17.48 18.2604 17.9063 18.2024C17.914 18.2013 17.9218 18.2004 17.9296 18.1996C19.1155 18.0749 19.6693 17.768 19.9901 17.3035C20.3543 16.7762 20.5366 15.8908 20.5366 14.3256V9.67442C20.5366 8.10922 20.3543 7.22377 19.9901 6.69651C19.6693 6.23203 19.1155 5.92514 17.9296 5.80045C17.9218 5.79963 17.914 5.79869 17.9063 5.79764C17.48 5.73957 16.9843 5.72093 16.3902 5.72093H14.9463C14.5422 5.72093 14.2146 5.40857 14.2146 5.02326Z" fill="#171725"/>
<path fill-rule="evenodd" clip-rule="evenodd" d="M14.9268 2C15.3309 2 15.6585 2.31236 15.6585 2.69767V21.3023C15.6585 21.6876 15.3309 22 14.9268 22C14.5227 22 14.1951 21.6876 14.1951 21.3023V2.69767C14.1951 2.31236 14.5227 2 14.9268 2Z" fill="#171725"/>
<path fill-rule="evenodd" clip-rule="evenodd" d="M10.141 12C10.141 11.4862 10.5778 11.0698 11.1166 11.0698H11.1253C11.6641 11.0698 12.1009 11.4862 12.1009 12C12.1009 12.5138 11.6641 12.9302 11.1253 12.9302H11.1166C10.5778 12.9302 10.141 12.5138 10.141 12Z" fill="#171725"/>
<path fill-rule="evenodd" clip-rule="evenodd" d="M6.23852 12C6.23852 11.4862 6.67532 11.0698 7.21413 11.0698H7.22289C7.76171 11.0698 8.1985 11.4862 8.1985 12C8.1985 12.5138 7.76171 12.9302 7.22289 12.9302H7.21413C6.67532 12.9302 6.23852 12.5138 6.23852 12Z" fill="#171725"/>
</svg>
