<svg width="24" height="24" viewBox="0 0 24 24" fill="none" xmlns="http://www.w3.org/2000/svg">
<path fill-rule="evenodd" clip-rule="evenodd" d="M11.9169 11.5892H12.0186C14.5985 11.5059 16.6329 9.39762 16.6421 6.79921C16.6421 4.15456 14.4875 2 11.8429 2C9.19824 2 7.04368 4.15456 7.04368 6.79921C7.04368 9.39762 9.06878 11.5059 11.7504 11.5892C11.8059 11.5799 11.8706 11.5799 11.9169 11.5892ZM8.43074 6.79921C8.43074 4.92206 9.96574 3.38705 11.8429 3.38705C13.72 3.38705 15.255 4.92206 15.255 6.79921C15.2458 8.63012 13.8218 10.1189 12.0093 10.2021C11.8891 10.1929 11.7597 10.1929 11.7134 10.2021C9.87327 10.1374 8.43074 8.64861 8.43074 6.79921Z" fill="#171725"/>
<path fill-rule="evenodd" clip-rule="evenodd" d="M6.98811 20.3091C8.36592 21.2338 10.1876 21.6962 12 21.6962C13.8124 21.6962 15.6248 21.2338 17.0119 20.3091C18.2972 19.4492 19 18.2748 19 17.008C19 15.7411 18.288 14.576 17.0119 13.7253C14.2563 11.8851 9.76222 11.8851 6.98811 13.7253C5.70277 14.5852 5 15.7596 5 17.0264C5 18.2933 5.70277 19.4584 6.98811 20.3091ZM6.38705 17.0357C6.38705 16.2404 6.8679 15.4822 7.75561 14.8904C10.0581 13.3554 13.9419 13.3554 16.2444 14.8904C17.1229 15.4729 17.6129 16.2312 17.6129 17.0172C17.6129 17.8124 17.1321 18.5707 16.2444 19.1625C13.9419 20.7068 10.0581 20.7068 7.75561 19.1625C6.87715 18.5799 6.38705 17.8217 6.38705 17.0357Z" fill="#171725"/>
</svg>
