<svg width="24" height="24" viewBox="0 0 24 24" fill="none" xmlns="http://www.w3.org/2000/svg">
<path fill-rule="evenodd" clip-rule="evenodd" d="M3.69614 3.92728C4.92316 2.70026 6.75926 2.23114 9.12598 2.23114H10.9649C11.3458 2.23114 11.6546 2.53989 11.6546 2.92075C11.6546 3.30161 11.3458 3.61036 10.9649 3.61036H9.12598C6.8953 3.61036 5.51321 4.06072 4.6714 4.90254C3.82958 5.74435 3.37922 7.12643 3.37922 9.35712V14.874C3.37922 17.1047 3.82958 18.4868 4.6714 19.3286C5.51321 20.1704 6.8953 20.6208 9.12598 20.6208H14.6429C16.8736 20.6208 18.2556 20.1704 19.0975 19.3286C19.9393 18.4868 20.3896 17.1047 20.3896 14.874V13.0351C20.3896 12.6542 20.6984 12.3454 21.0793 12.3454C21.4601 12.3454 21.7689 12.6542 21.7689 13.0351V14.874C21.7689 17.2407 21.2997 19.0768 20.0727 20.3039C18.8457 21.5309 17.0096 22 14.6429 22H9.12598C6.75926 22 4.92316 21.5309 3.69614 20.3039C2.46912 19.0768 2 17.2407 2 14.874V9.35712C2 6.9904 2.46912 5.1543 3.69614 3.92728Z" fill="#171725"/>
<path fill-rule="evenodd" clip-rule="evenodd" d="M17.5822 2.01376C18.6059 1.91328 19.6209 2.36284 20.629 3.37099C21.6372 4.37914 22.0867 5.39408 21.9862 6.41779C21.8893 7.40532 21.2937 8.22377 20.629 8.88849L13.3755 16.142C13.1684 16.3424 12.8978 16.5175 12.6366 16.6487C12.377 16.7792 12.0712 16.8943 11.7797 16.9359L9.00852 17.3318C8.32619 17.4257 7.67333 17.2394 7.2153 16.7832C6.75628 16.3261 6.56853 15.673 6.66888 14.9867L6.66909 14.9853L7.06377 12.2226L7.06394 12.2213C7.10535 11.926 7.21985 11.618 7.35128 11.3565C7.48298 11.0944 7.66032 10.8222 7.86599 10.6165L15.1115 3.37099C15.7762 2.70627 16.5947 2.1107 17.5822 2.01376ZM17.717 3.38639C17.2057 3.43657 16.6725 3.76048 16.0868 4.34625L8.84125 11.5918C8.77108 11.6619 8.67257 11.7989 8.5836 11.9759C8.49453 12.1531 8.44366 12.3135 8.42976 12.4132L8.42944 12.4154L8.03407 15.183L8.03368 15.1856C7.98738 15.5011 8.08012 15.698 8.18858 15.806C8.29814 15.9151 8.4999 16.0091 8.81885 15.9657L8.82049 15.9654L11.5846 15.5706C11.6793 15.557 11.8378 15.5066 12.0172 15.4164C12.1926 15.3282 12.3343 15.2291 12.4129 15.154L19.6538 7.91323C20.2395 7.32746 20.5634 6.79427 20.6136 6.28305C20.6602 5.808 20.4846 5.17707 19.6538 4.34625C18.8229 3.51544 18.192 3.33976 17.717 3.38639Z" fill="#171725"/>
<path fill-rule="evenodd" clip-rule="evenodd" d="M14.374 4.23362C14.7407 4.13082 15.1213 4.34477 15.2241 4.71149C15.775 6.67653 17.3131 8.21617 19.2904 8.77638C19.6568 8.88021 19.8697 9.26143 19.7659 9.62787C19.662 9.9943 19.2808 10.2072 18.9144 10.1034C16.4781 9.41309 14.5773 7.51387 13.8961 5.08378C13.7933 4.71706 14.0073 4.33643 14.374 4.23362Z" fill="#171725"/>
</svg>
