<svg width="24" height="24" viewBox="0 0 24 24" fill="none" xmlns="http://www.w3.org/2000/svg">
<path fill-rule="evenodd" clip-rule="evenodd" d="M8.66667 5.33333C8.66667 3.49231 10.1592 2 12 2C13.8408 2 15.3333 3.49231 15.3333 5.33333V8.66667H18.6667C20.5075 8.66667 22 10.159 22 12C22 13.841 20.5075 15.3333 18.6667 15.3333H15.3333V18.6667C15.3333 20.5077 13.8408 22 12 22C10.1592 22 8.66667 20.5077 8.66667 18.6667V15.3333H5.33333C3.49251 15.3333 2 13.841 2 12C2 10.159 3.49251 8.66667 5.33333 8.66667H8.66667V5.33333ZM13.5234 5.12419L12.5424 3.91915C12.2686 3.58244 11.7314 3.58244 11.4576 3.91915L10.4766 5.12419C10.1303 5.55001 10.4509 6.16667 11.0194 6.16667H12.9806C13.5491 6.16667 13.8697 5.55001 13.5234 5.12419ZM19.2925 13.5232L20.4973 12.5426C20.8342 12.2686 20.8342 11.7314 20.4973 11.4574L19.2925 10.4768C18.8669 10.1301 18.25 10.4511 18.25 11.0194V12.9806C18.25 13.5489 18.8669 13.8699 19.2925 13.5232ZM13.5234 18.8758L12.5424 20.0809C12.2686 20.4176 11.7314 20.4176 11.4576 20.0809L10.4766 18.8758C10.1303 18.45 10.4509 17.8333 11.0194 17.8333H12.9806C13.5491 17.8333 13.8697 18.45 13.5234 18.8758ZM5.12419 10.4768L3.91935 11.4574C3.58244 11.7314 3.58244 12.2686 3.91935 12.5426L5.12419 13.5232C5.5498 13.8699 6.16667 13.5489 6.16667 12.9806V11.0194C6.16667 10.4511 5.5498 10.1301 5.12419 10.4768Z" fill="#171725"/>
</svg>
