<svg width="24" height="24" viewBox="0 0 24 24" fill="none" xmlns="http://www.w3.org/2000/svg">
<path d="M22 16.1971V7.8129C22 4.17108 19.83 2 16.19 2L7.82 2C4.17 2 2 4.17108 2 7.8129L2 16.1871C2 19.8289 4.17 22 7.81 22H16.19C19.83 22.01 22 19.8389 22 16.1971ZM11.47 18.5382L7.18 14.2461C7.03 14.096 6.96 13.9059 6.96 13.7158C6.96 13.5257 7.03 13.3356 7.18 13.1856C7.47 12.8954 7.95 12.8954 8.24 13.1856L11.25 16.1971L11.25 6.00199C11.25 5.59179 11.59 5.25162 12 5.25162C12.41 5.25162 12.75 5.59179 12.75 6.00199V16.1971L15.76 13.1856C16.05 12.8954 16.53 12.8954 16.82 13.1856C17.11 13.4757 17.11 13.956 16.82 14.2461L12.53 18.5382C12.39 18.6783 12.2 18.7584 12 18.7584C11.8 18.7584 11.61 18.6783 11.47 18.5382Z" fill="#171725"/>
</svg>
