<svg width="24" height="24" viewBox="0 0 24 24" fill="none" xmlns="http://www.w3.org/2000/svg">
<path d="M12.625 2C12.2798 2 12 2.27982 12 2.625V9.5C12 9.84518 12.2798 10.125 12.625 10.125C12.9702 10.125 13.25 9.84518 13.25 9.5V3.25H20.75V20.75H18.875C18.5298 20.75 18.25 21.0298 18.25 21.375C18.25 21.7202 18.5298 22 18.875 22H21.375C21.7202 22 22 21.7202 22 21.375V2.625C22 2.27982 21.7202 2 21.375 2H12.625Z" fill="#171725"/>
<path d="M17.625 7C17.625 6.65482 17.3452 6.375 17 6.375C16.6548 6.375 16.375 6.65482 16.375 7V9.5C16.375 9.84518 16.6548 10.125 17 10.125C17.3452 10.125 17.625 9.84518 17.625 9.5V7Z" fill="#171725"/>
<path d="M9.5 6.375C9.84518 6.375 10.125 6.65482 10.125 7V10.75C10.125 11.0952 9.84518 11.375 9.5 11.375C9.15482 11.375 8.875 11.0952 8.875 10.75V7C8.875 6.65482 9.15482 6.375 9.5 6.375Z" fill="#171725"/>
<path d="M6.0625 15.75C6.58027 15.75 7 15.3303 7 14.8125C7 14.2947 6.58027 13.875 6.0625 13.875C5.54473 13.875 5.125 14.2947 5.125 14.8125C5.125 15.3303 5.54473 15.75 6.0625 15.75Z" fill="#171725"/>
<path d="M13.875 14.8125C13.875 15.3303 13.4553 15.75 12.9375 15.75C12.4197 15.75 12 15.3303 12 14.8125C12 14.2947 12.4197 13.875 12.9375 13.875C13.4553 13.875 13.875 14.2947 13.875 14.8125Z" fill="#171725"/>
<path fill-rule="evenodd" clip-rule="evenodd" d="M7.34299 11.6519C6.74764 11.3821 6.08239 11.3069 5.44181 11.4368C4.80123 11.5667 4.21789 11.8953 3.77472 12.3757C3.33476 12.8527 3.05516 13.4553 2.97493 14.099L2.8256 15.0104C2.73478 15.5649 2.61367 16.3046 2.49257 17.0451C2.37147 17.7856 2.25035 18.5271 2.15949 19.0853C2.11407 19.3643 2.07616 19.5978 2.0496 19.7625L2.01857 19.9561L2.00996 20.0111L2.00699 20.031L2.00512 20.0449L2.00333 20.0605L2.00176 20.0781C2.00119 20.0864 2.00018 20.1098 2 20.125V20.1264C2.00075 20.47 2.09592 20.8068 2.2751 21.1C2.45429 21.3933 2.7106 21.6316 3.01605 21.789C3.3215 21.9464 3.66433 22.0169 4.0071 21.9927C4.34753 21.9686 4.67489 21.8521 4.95393 21.6558L8.1296 19.5H10.8704L14.0461 21.6558C14.3251 21.8521 14.6525 21.9686 14.9929 21.9927C15.3357 22.0169 15.6785 21.9464 15.9839 21.789C16.2894 21.6316 16.5457 21.3933 16.7249 21.1C16.9041 20.8068 16.9992 20.47 17 20.1264L17 20.125C16.9998 20.1098 16.9988 20.0864 16.9982 20.0781L16.9967 20.0605L16.9949 20.0449L16.993 20.031L16.99 20.0111L16.9814 19.9561L16.9504 19.7625C16.9238 19.5978 16.8859 19.3643 16.8405 19.0853C16.7497 18.5271 16.6285 17.7856 16.5074 17.0451L16.0251 14.099C15.9448 13.4553 15.6652 12.8527 15.2253 12.3757C14.7821 11.8953 14.1988 11.5667 13.5582 11.4368C12.9176 11.3069 12.2524 11.3821 11.657 11.6519C11.1764 11.8697 10.7611 12.2053 10.4481 12.625H8.55188C8.23888 12.2053 7.82357 11.8697 7.34299 11.6519ZM4.05916 15.2124L4.21051 14.2887C4.21196 14.2799 4.21323 14.2709 4.2143 14.262C4.26087 13.874 4.42856 13.5105 4.69353 13.2232C4.95851 12.936 5.30729 12.7395 5.6903 12.6619C6.07331 12.5842 6.47107 12.6292 6.82703 12.7905C7.183 12.9518 7.47906 13.2212 7.67314 13.5604C7.78447 13.755 7.99146 13.875 8.21562 13.875H10.7844C11.0085 13.875 11.2155 13.755 11.3269 13.5604C11.5209 13.2212 11.817 12.9518 12.173 12.7905C12.5289 12.6292 12.9267 12.5842 13.3097 12.6619C13.6927 12.7395 14.0415 12.936 14.3065 13.2232C14.5714 13.5105 14.7391 13.874 14.7857 14.262C14.7868 14.2709 14.788 14.2799 14.7895 14.2887L14.9408 15.2124C15.0317 15.7669 15.1527 16.5064 15.2738 17.2468C15.3949 17.9873 15.516 18.7284 15.6068 19.2861C15.6522 19.565 15.6899 19.7978 15.7163 19.9615L15.7468 20.1516L15.7487 20.1633C15.742 20.264 15.7111 20.3618 15.6583 20.4482C15.5986 20.546 15.5131 20.6254 15.4113 20.6779C15.3095 20.7303 15.1952 20.7538 15.081 20.7458C14.9667 20.7377 14.8569 20.6984 14.7634 20.6321L14.7529 20.6248L11.4135 18.3579C11.31 18.2876 11.1877 18.25 11.0625 18.25H7.9375C7.81233 18.25 7.69004 18.2876 7.58647 18.3579L4.24709 20.6248L4.23656 20.6321C4.14313 20.6984 4.03329 20.7377 3.91903 20.7458C3.80478 20.7538 3.6905 20.7303 3.58868 20.6779C3.48687 20.6254 3.40143 20.546 3.3417 20.4482C3.28888 20.3618 3.25797 20.264 3.25135 20.1633L3.25318 20.1516L3.28365 19.9615C3.31007 19.7978 3.34785 19.565 3.39325 19.2861C3.48403 18.7284 3.60509 17.9873 3.72618 17.2468C3.84726 16.5064 3.96835 15.7669 4.05916 15.2124Z" fill="#171725"/>
</svg>
