<svg width="24" height="24" viewBox="0 0 24 24" fill="none" xmlns="http://www.w3.org/2000/svg">
<path d="M15.2004 4.25768C14.8838 3.91411 14.3704 3.91411 14.0538 4.25768C13.7371 4.60125 13.7371 5.15828 14.0538 5.50185L19.2318 11.1203L2.8108 11.1203C2.36301 11.1203 2 11.5142 2 12.0001C2 12.486 2.36301 12.8798 2.8108 12.8798L19.2317 12.8798L14.0538 18.4981C13.7371 18.8417 13.7371 19.3988 14.0538 19.7423C14.3704 20.0859 14.8838 20.0859 15.2004 19.7423L21.7625 12.6221C21.9146 12.4571 22 12.2333 22 12C22 11.7667 21.9146 11.5429 21.7625 11.3779L15.2004 4.25768Z" fill="#171725"/>
</svg>
