<svg width="24" height="24" viewBox="0 0 24 24" fill="none" xmlns="http://www.w3.org/2000/svg">
<path d="M14.7643 3.39836H8.88216C8.47509 3.39836 8.14944 3.07747 8.14944 2.67636C8.14944 2.27525 8.47509 1.94434 8.88216 1.94434H14.7643C15.1714 1.94434 15.4971 2.26522 15.4971 2.66634C15.4971 3.06745 15.1714 3.39836 14.7643 3.39836Z" fill="#171725"/>
<path d="M19.9341 14.9804H16.9422C15.6497 14.9804 14.8763 15.7426 14.8763 17.0161V19.9643C14.8763 21.2378 15.6497 21.9999 16.9422 21.9999H19.9341C21.2266 21.9999 22 21.2378 22 19.9643V17.0161C22 15.7426 21.2266 14.9804 19.9341 14.9804ZM19.6492 19.4528L18.4483 20.1347C18.2041 20.2751 17.9598 20.3453 17.7359 20.3453C17.5629 20.3453 17.4103 20.3052 17.2678 20.225C16.9422 20.0344 16.759 19.6634 16.759 19.1721V17.8083C16.759 17.3169 16.9422 16.9459 17.2678 16.7554C17.5935 16.5648 18.0107 16.6049 18.4483 16.8456L19.6492 17.5275C20.0766 17.7782 20.3208 18.1191 20.3208 18.4902C20.3208 18.8612 20.0868 19.2021 19.6492 19.4528Z" fill="#171725"/>
<path d="M13.8586 19.9643V17.0161C13.8586 15.2011 15.1002 13.9777 16.9422 13.9777H19.9341C20.1682 13.9777 20.3921 13.9977 20.6058 14.0378C20.6261 13.7972 20.6465 13.5565 20.6465 13.3058C20.6465 8.5025 16.6877 4.6017 11.8232 4.6017C6.95876 4.6017 3 8.5025 3 13.3058C3 18.0991 6.95876 21.9999 11.8232 21.9999C12.6883 21.9999 13.5126 21.8595 14.3064 21.6389C14.0214 21.1676 13.8586 20.606 13.8586 19.9643ZM12.5865 12.9749C12.5865 13.386 12.2405 13.727 11.8232 13.727C11.406 13.727 11.06 13.386 11.06 12.9749V7.961C11.06 7.54986 11.406 7.20892 11.8232 7.20892C12.2405 7.20892 12.5865 7.54986 12.5865 7.961V12.9749Z" fill="#171725"/>
</svg>
