<svg width="24" height="24" viewBox="0 0 24 24" fill="none" xmlns="http://www.w3.org/2000/svg">
<path d="M13.4764 2.54532C12.6344 1.81823 11.3656 1.81823 10.5236 2.54532L2.74585 9.26186C2.27144 9.67154 2 10.2588 2 10.8754V19.8411C2 21.0334 2.99492 22 4.22222 22H7.77778C9.00508 22 10 21.0334 10 19.8411V18.114C10 17.041 10.8954 16.1711 12 16.1711C13.1046 16.1711 14 17.041 14 18.114V19.8411C14 21.0334 14.9949 22 16.2222 22H19.7778C21.0051 22 22 21.0334 22 19.8411V10.8754C22 10.2588 21.7286 9.67154 21.2542 9.26186L13.4764 2.54532Z" fill="#171725"/>
</svg>
