<svg width="24" height="24" viewBox="0 0 24 24" fill="none" xmlns="http://www.w3.org/2000/svg">
<path fill-rule="evenodd" clip-rule="evenodd" d="M15 3.44578H9C8.59 3.44578 8.25 3.11807 8.25 2.72289C8.25 2.32771 8.59 2 9 2H15C15.41 2 15.75 2.32771 15.75 2.72289C15.75 3.11807 15.41 3.44578 15 3.44578ZM18 5.85542H6C5.59 5.85542 5.25 5.52771 5.25 5.13253C5.25 4.73735 5.59 4.40964 6 4.40964H18C18.41 4.40964 18.75 4.73735 18.75 5.13253C18.75 5.52771 18.41 5.85542 18 5.85542ZM18 7.54217H6C3.8 7.54217 2 9.27711 2 11.3976V18.1446C2 20.2651 3.8 22 6 22H18C20.2 22 22 20.2651 22 18.1446V11.3976C22 9.27711 20.2 7.54217 18 7.54217Z" fill="#171725"/>
</svg>
