<svg width="24" height="24" viewBox="0 0 24 24" fill="none" xmlns="http://www.w3.org/2000/svg">
<path d="M16.1971 2H7.8129C4.17108 2 2 4.17 2 7.81V16.18C2 19.83 4.17108 22 7.8129 22H16.1871C19.8289 22 22 19.83 22 16.19V7.81C22.01 4.17 19.8389 2 16.1971 2ZM18.008 12.75H12.7554V18C12.7554 18.41 12.4152 18.75 12.005 18.75C11.5948 18.75 11.2546 18.41 11.2546 18V12.75H6.00199C5.59179 12.75 5.25162 12.41 5.25162 12C5.25162 11.59 5.59179 11.25 6.00199 11.25H11.2546V6C11.2546 5.59 11.5948 5.25 12.005 5.25C12.4152 5.25 12.7554 5.59 12.7554 6V11.25H18.008C18.4182 11.25 18.7584 11.59 18.7584 12C18.7584 12.41 18.4182 12.75 18.008 12.75Z" fill="#171725"/>
</svg>
