<svg width="24" height="24" viewBox="0 0 24 24" fill="none" xmlns="http://www.w3.org/2000/svg">
<path d="M15.9833 10.0838C16.2276 9.83991 16.2279 9.44418 15.9841 9.19989C15.7402 8.95559 15.3445 8.95524 15.1002 9.19911L10.8171 13.4746L8.90036 11.5578C8.65628 11.3138 8.26055 11.3138 8.01647 11.5578C7.7724 11.8019 7.7724 12.1976 8.01647 12.4417L10.3748 14.8C10.6187 15.044 11.0142 15.0441 11.2583 14.8004L15.9833 10.0838Z" fill="#171725"/>
<path fill-rule="evenodd" clip-rule="evenodd" d="M12.0001 3.0415C7.07157 3.0415 3.04175 7.07133 3.04175 11.9998C3.04175 16.9283 7.07157 20.9582 12.0001 20.9582C16.9286 20.9582 20.9584 16.9283 20.9584 11.9998C20.9584 7.07133 16.9286 3.0415 12.0001 3.0415ZM4.29175 11.9998C4.29175 7.76168 7.76193 4.2915 12.0001 4.2915C16.2382 4.2915 19.7084 7.76168 19.7084 11.9998C19.7084 16.238 16.2382 19.7082 12.0001 19.7082C7.76193 19.7082 4.29175 16.238 4.29175 11.9998Z" fill="#171725"/>
</svg>
