<svg width="24" height="24" viewBox="0 0 24 24" fill="none" xmlns="http://www.w3.org/2000/svg">
<path d="M7.27703 6.75003C7.27703 4.13001 9.39492 2 12 2C14.6052 2 16.723 4.13001 16.723 6.75003C16.7131 9.32004 14.7145 11.4001 12.1691 11.4901H12.0995C12.0398 11.4801 11.9603 11.4801 11.8807 11.4901C9.27561 11.4001 7.27703 9.32004 7.27703 6.75003Z" fill="#171725"/>
<path d="M6.95881 14.15C9.75284 12.2899 14.277 12.2899 17.0511 14.15C18.304 14.99 18.9901 16.13 19 17.36C19 18.6 18.304 19.74 17.0511 20.59C15.6591 21.53 13.8295 22 12 22C10.1705 22 8.34091 21.53 6.94886 20.59C5.69602 19.75 5 18.61 5 17.38C5 16.15 5.69602 15 6.95881 14.15Z" fill="#171725"/>
</svg>
