<svg width="24" height="24" viewBox="0 0 24 24" fill="none" xmlns="http://www.w3.org/2000/svg">
<path d="M2 7.80293L2 16.1871C2 19.8289 4.17 22 7.81 22L16.18 22C19.83 22 22 19.8289 22 16.1871L22 7.81293C22 4.17111 19.83 2.00003 16.19 2.00003L7.81 2.00003C4.17 1.99003 2 4.16111 2 7.80293ZM12.53 5.46176L16.82 9.7539C16.97 9.90397 17.04 10.0941 17.04 10.2842C17.04 10.4743 16.97 10.6644 16.82 10.8144C16.53 11.1046 16.05 11.1046 15.76 10.8144L12.75 7.80292L12.75 17.998C12.75 18.4082 12.41 18.7484 12 18.7484C11.59 18.7484 11.25 18.4082 11.25 17.998L11.25 7.80292L8.24 10.8144C7.95 11.1046 7.47 11.1046 7.18 10.8144C6.89 10.5243 6.89 10.044 7.18 9.7539L11.47 5.46176C11.61 5.32169 11.8 5.24165 12 5.24165C12.2 5.24165 12.39 5.32169 12.53 5.46176Z" fill="#171725"/>
</svg>
