<svg width="24" height="24" viewBox="0 0 24 24" fill="none" xmlns="http://www.w3.org/2000/svg">
<path d="M8.79958 19.7423C9.11622 20.0859 9.62959 20.0859 9.94623 19.7423C10.2629 19.3988 10.2629 18.8417 9.94623 18.4981L4.76818 12.8797L21.1892 12.8797C21.637 12.8797 22 12.4858 22 11.9999C22 11.514 21.637 11.1202 21.1892 11.1202L4.76833 11.1202L9.94623 5.50185C10.2629 5.15828 10.2629 4.60125 9.94623 4.25768C9.62959 3.91411 9.11622 3.91411 8.79958 4.25768L2.23748 11.3779C2.08542 11.5429 2 11.7667 2 12C2 12.2333 2.08542 12.4571 2.23748 12.6221L8.79958 19.7423Z" fill="#171725"/>
</svg>
