<svg width="24" height="24" viewBox="0 0 24 24" fill="none" xmlns="http://www.w3.org/2000/svg">
<path fill-rule="evenodd" clip-rule="evenodd" d="M15.0233 6.92308C15.0233 6.54073 15.3356 6.23077 15.7209 6.23077H21.3023C21.6876 6.23077 22 6.54073 22 6.92308C22 7.30543 21.6876 7.61538 21.3023 7.61538H15.7209C15.3356 7.61538 15.0233 7.30543 15.0233 6.92308Z" fill="#171725"/>
<path fill-rule="evenodd" clip-rule="evenodd" d="M2 6.92308C2 6.54073 2.31236 6.23077 2.69767 6.23077H6.4186C6.80392 6.23077 7.11628 6.54073 7.11628 6.92308C7.11628 7.30543 6.80392 7.61538 6.4186 7.61538H2.69767C2.31236 7.61538 2 7.30543 2 6.92308Z" fill="#171725"/>
<path fill-rule="evenodd" clip-rule="evenodd" d="M10.1395 4.38462C8.72671 4.38462 7.5814 5.52112 7.5814 6.92308C7.5814 8.32503 8.72671 9.46154 10.1395 9.46154C11.5524 9.46154 12.6977 8.32503 12.6977 6.92308C12.6977 5.52112 11.5524 4.38462 10.1395 4.38462ZM6.18605 6.92308C6.18605 4.75642 7.95608 3 10.1395 3C12.323 3 14.093 4.75642 14.093 6.92308C14.093 9.08973 12.323 10.8462 10.1395 10.8462C7.95608 10.8462 6.18605 9.08973 6.18605 6.92308Z" fill="#171725"/>
<path fill-rule="evenodd" clip-rule="evenodd" d="M16.8837 17.0769C16.8837 16.6946 17.1961 16.3846 17.5814 16.3846H21.3023C21.6876 16.3846 22 16.6946 22 17.0769C22 17.4593 21.6876 17.7692 21.3023 17.7692H17.5814C17.1961 17.7692 16.8837 17.4593 16.8837 17.0769Z" fill="#171725"/>
<path fill-rule="evenodd" clip-rule="evenodd" d="M2 17.0769C2 16.6946 2.31236 16.3846 2.69767 16.3846H8.27907C8.66438 16.3846 8.97674 16.6946 8.97674 17.0769C8.97674 17.4593 8.66438 17.7692 8.27907 17.7692H2.69767C2.31236 17.7692 2 17.4593 2 17.0769Z" fill="#171725"/>
<path fill-rule="evenodd" clip-rule="evenodd" d="M13.8605 14.5385C12.4476 14.5385 11.3023 15.675 11.3023 17.0769C11.3023 18.4789 12.4476 19.6154 13.8605 19.6154C15.2733 19.6154 16.4186 18.4789 16.4186 17.0769C16.4186 15.675 15.2733 14.5385 13.8605 14.5385ZM9.90698 17.0769C9.90698 14.9103 11.677 13.1538 13.8605 13.1538C16.0439 13.1538 17.814 14.9103 17.814 17.0769C17.814 19.2436 16.0439 21 13.8605 21C11.677 21 9.90698 19.2436 9.90698 17.0769Z" fill="#171725"/>
</svg>
