<svg width="24" height="24" viewBox="0 0 24 24" fill="none" xmlns="http://www.w3.org/2000/svg">
<path d="M18.172 12.3677L19.1821 13.9568C19.5761 14.5695 19.6468 15.297 19.3842 15.9576C19.1215 16.6181 18.576 17.1255 17.8689 17.3457C15.9092 17.9679 13.8485 18.2742 11.7878 18.2742C9.72702 18.2742 7.66628 17.9679 5.70657 17.3361C4.95905 17.0968 4.38325 16.599 4.14081 15.9576C3.88827 15.3066 3.97919 14.5982 4.38325 13.9568L5.40352 12.3581C5.61565 12.0134 5.80758 11.3433 5.80758 10.9508V8.52884C5.80758 6.30789 7.1713 4.3837 9.14112 3.45511C9.66641 2.56481 10.6564 2 11.7574 2C12.8686 2 13.8384 2.54567 14.3637 3.42639C16.3739 4.33583 17.7679 6.27917 17.7679 8.52884V10.9508C17.7679 11.3433 17.9598 12.0134 18.172 12.3677Z" fill="#171725"/>
<path d="M11.7671 21.1463C13.0803 21.1463 14.2016 20.3517 14.6259 19.2413C14.4542 19.2604 14.2926 19.2795 14.131 19.2987C13.9946 19.3181 13.8534 19.3288 13.7109 19.3395C13.6424 19.3447 13.5735 19.3499 13.5046 19.3561C12.9389 19.404 12.3631 19.4327 11.7873 19.4327C11.2014 19.4327 10.6155 19.404 10.0397 19.3561C9.7973 19.337 9.55486 19.3083 9.32252 19.2796C9.25605 19.2706 9.19181 19.2637 9.12875 19.2569C9.05765 19.2493 8.98805 19.2418 8.91846 19.2317C9.05988 19.6242 9.30232 20.0071 9.62557 20.2943C10.1812 20.84 10.9691 21.1463 11.7671 21.1463Z" fill="#171725"/>
</svg>
