<svg width="24" height="24" viewBox="0 0 24 24" fill="none" xmlns="http://www.w3.org/2000/svg">
<path fill-rule="evenodd" clip-rule="evenodd" d="M5.64091 3.39608C4.99997 3.39608 4.43008 3.90825 4.43008 4.67116V6.83044C4.43008 6.98204 4.48706 7.23278 4.61889 7.51965C4.74804 7.80069 4.91988 8.05256 5.08821 8.21689L5.10088 8.22957L8.76192 11.9897C8.77394 12.002 8.7855 12.0148 8.79656 12.028C9.04706 12.3262 9.27454 12.7195 9.4404 13.125C9.60507 13.5275 9.73093 13.9955 9.73093 14.4437V19.4231C9.73093 20.3439 10.813 20.9144 11.6188 20.4333L12.9565 19.5905L12.9728 19.5805C13.0685 19.5237 13.2074 19.382 13.326 19.1593C13.4427 18.9402 13.4968 18.7224 13.4968 18.5761C13.4968 18.1906 13.817 17.8781 14.2119 17.8781C14.6068 17.8781 14.9269 18.1906 14.9269 18.5761C14.9269 18.9976 14.7904 19.436 14.5948 19.8032C14.4027 20.164 14.1109 20.5357 13.7249 20.7679L12.3877 21.6104L12.376 21.6176C10.6844 22.6387 8.30084 21.5159 8.30084 19.4231V14.4437C8.30084 14.2312 8.23603 13.9452 8.1123 13.6427C7.99407 13.3537 7.84226 13.0989 7.70564 12.9312L4.07012 9.19734C3.75532 8.8879 3.49583 8.48658 3.31409 8.09108C3.13369 7.69852 3 7.24657 3 6.83044V4.67116C3 3.18173 4.16532 2 5.64091 2H18.3591C19.8122 2 21 3.15945 21 4.57808V6.64428C21 7.15387 20.8399 7.67885 20.6327 8.12198C20.4246 8.56702 20.1393 8.9929 19.8276 9.29715C19.5484 9.56975 19.0957 9.56975 18.8164 9.29715C18.5372 9.02455 18.5372 8.58257 18.8164 8.30997C18.9814 8.14886 19.1776 7.87204 19.3318 7.54226C19.4869 7.21056 19.5699 6.88858 19.5699 6.64428V4.57808C19.5699 3.93052 19.0225 3.39608 18.3591 3.39608H5.64091Z" fill="#171725"/>
<path fill-rule="evenodd" clip-rule="evenodd" d="M15.8802 10.9445C14.5902 10.9445 13.5444 11.9655 13.5444 13.2248C13.5444 14.4842 14.5902 15.5051 15.8802 15.5051C17.1703 15.5051 18.2161 14.4842 18.2161 13.2248C18.2161 11.9655 17.1703 10.9445 15.8802 10.9445ZM12.1143 13.2248C12.1143 11.1944 13.8004 9.54847 15.8802 9.54847C17.9601 9.54847 19.6461 11.1944 19.6461 13.2248C19.6461 15.2552 17.9601 16.9011 15.8802 16.9011C13.8004 16.9011 12.1143 15.2552 12.1143 13.2248Z" fill="#171725"/>
<path fill-rule="evenodd" clip-rule="evenodd" d="M18.0441 15.3372C18.3234 15.0646 18.7761 15.0646 19.0553 15.3372L20.0087 16.268C20.288 16.5406 20.288 16.9825 20.0087 17.2551C19.7295 17.5277 19.2767 17.5277 18.9975 17.2551L18.0441 16.3244C17.7649 16.0518 17.7649 15.6098 18.0441 15.3372Z" fill="#171725"/>
</svg>
