<svg width="24" height="24" viewBox="0 0 24 24" fill="none" xmlns="http://www.w3.org/2000/svg">
<path fill-rule="evenodd" clip-rule="evenodd" d="M4.45148 6.28544C3.81896 6.86563 3.39535 7.80703 3.39535 9.28378V15.7162C3.39535 17.193 3.81896 18.1344 4.45148 18.7146C5.09335 19.3033 6.06044 19.6216 7.34884 19.6216H16.6512C17.9396 19.6216 18.9066 19.3033 19.5485 18.7146C20.181 18.1344 20.6047 17.193 20.6047 15.7162V9.28378C20.6047 7.80703 20.181 6.86563 19.5485 6.28544C18.9066 5.69666 17.9396 5.37838 16.6512 5.37838H7.34884C6.06044 5.37838 5.09335 5.69666 4.45148 6.28544ZM3.50201 5.27537C4.48804 4.37091 5.84654 4 7.34884 4H16.6512C18.1535 4 19.512 4.37091 20.498 5.27537C21.4934 6.18842 22 7.54432 22 9.28378V15.7162C22 17.4557 21.4934 18.8116 20.498 19.7246C19.512 20.6291 18.1535 21 16.6512 21H7.34884C5.84654 21 4.48804 20.6291 3.50201 19.7246C2.50662 18.8116 2 17.4557 2 15.7162V9.28378C2 7.54432 2.50662 6.18842 3.50201 5.27537Z" fill="#171725"/>
<path fill-rule="evenodd" clip-rule="evenodd" d="M17.1963 9.31313C17.4368 9.61054 17.3876 10.0442 17.0866 10.2817L14.1741 12.5797C12.9616 13.5332 11.0291 13.5332 9.81662 12.5797L9.8149 12.5784L6.91258 10.2811C6.61189 10.0431 6.56345 9.60932 6.80439 9.31229C7.04533 9.01525 7.48441 8.9674 7.7851 9.20541L10.6865 11.502C11.3903 12.0548 12.6011 12.0547 13.3047 11.5016V11.5016L16.2158 9.20474C16.5168 8.9672 16.9558 9.01572 17.1963 9.31313Z" fill="#171725"/>
</svg>
