<svg width="24" height="24" viewBox="0 0 24 24" fill="none" xmlns="http://www.w3.org/2000/svg">
<path fill-rule="evenodd" clip-rule="evenodd" d="M12.25 3.42647C10.8421 3.42647 9.70098 4.56764 9.70098 5.97549V9.70098H5.97549C4.56764 9.70098 3.42647 10.8421 3.42647 12.25C3.42647 13.6579 4.56764 14.799 5.97549 14.799H9.70098V18.5245C9.70098 19.9324 10.8421 21.0735 12.25 21.0735C13.6577 21.0735 14.799 19.9323 14.799 18.5245V14.799H18.5245C19.9322 14.799 21.0735 13.6578 21.0735 12.25C21.0735 10.8422 19.9322 9.70098 18.5245 9.70098H14.799V5.97549C14.799 4.56766 13.6577 3.42647 12.25 3.42647ZM8.52451 5.97549C8.52451 3.91789 10.1924 2.25 12.25 2.25C14.3074 2.25 15.9755 3.91787 15.9755 5.97549V8.52451H18.5245C20.5819 8.52451 22.25 10.1924 22.25 12.25C22.25 14.3076 20.5819 15.9755 18.5245 15.9755H15.9755V18.5245C15.9755 20.5821 14.3074 22.25 12.25 22.25C10.1924 22.25 8.52451 20.5821 8.52451 18.5245V15.9755H5.97549C3.91789 15.9755 2.25 14.3076 2.25 12.25C2.25 10.1924 3.91789 8.52451 5.97549 8.52451H8.52451V5.97549Z" fill="#171725"/>
<path d="M11.7394 4.64456C11.9973 4.32763 12.5027 4.32763 12.7606 4.64456L13.6837 5.77856C14.0099 6.17933 13.7078 6.7598 13.173 6.7598H11.327C10.7922 6.7598 10.4901 6.17933 10.8163 5.77856L11.7394 4.64456Z" fill="#171725"/>
<path d="M12.7606 19.8554C12.5027 20.1724 11.9973 20.1724 11.7394 19.8554L10.8163 18.7214C10.4901 18.3207 10.7922 17.7402 11.327 17.7402H13.173C13.7078 17.7402 14.0099 18.3207 13.6837 18.7214L12.7606 19.8554Z" fill="#171725"/>
<path d="M19.8554 11.7394C20.1724 11.9973 20.1724 12.5027 19.8554 12.7606L18.7214 13.6837C18.3207 14.0099 17.7402 13.7078 17.7402 13.173V11.327C17.7402 10.7922 18.3207 10.4901 18.7214 10.8163L19.8554 11.7394Z" fill="#171725"/>
<path d="M4.64456 12.7606C4.32763 12.5027 4.32763 11.9973 4.64456 11.7394L5.77856 10.8163C6.17933 10.4901 6.7598 10.7922 6.7598 11.327V13.173C6.7598 13.7078 6.17933 14.0099 5.77856 13.6837L4.64456 12.7606Z" fill="#171725"/>
</svg>
