<svg width="24" height="24" viewBox="0 0 24 24" fill="none" xmlns="http://www.w3.org/2000/svg">
<path fill-rule="evenodd" clip-rule="evenodd" d="M11.504 3.6806L3.72623 10.3971C3.57551 10.5273 3.5 10.7029 3.5 10.8754V19.8411C3.5 20.1644 3.78215 20.5 4.22222 20.5H7.77778C8.21785 20.5 8.5 20.1644 8.5 19.8411V18.114C8.5 16.1719 10.1082 14.6711 12 14.6711C13.8918 14.6711 15.5 16.1719 15.5 18.114V19.8411C15.5 20.1644 15.7822 20.5 16.2222 20.5H19.7778C20.2178 20.5 20.5 20.1644 20.5 19.8411V10.8754C20.5 10.7029 20.4245 10.5273 20.2738 10.3971L12.496 3.6806C12.2172 3.4398 11.7828 3.4398 11.504 3.6806ZM10.5236 2.54532C11.3656 1.81823 12.6344 1.81823 13.4764 2.54532L21.2542 9.26186C21.7286 9.67154 22 10.2588 22 10.8754V19.8411C22 21.0334 21.0051 22 19.7778 22H16.2222C14.9949 22 14 21.0334 14 19.8411V18.114C14 17.041 13.1046 16.1711 12 16.1711C10.8954 16.1711 10 17.041 10 18.114V19.8411C10 21.0334 9.00508 22 7.77778 22H4.22222C2.99492 22 2 21.0334 2 19.8411V10.8754C2 10.2588 2.27144 9.67154 2.74585 9.26186L10.5236 2.54532Z" fill="#171725"/>
</svg>
