<svg width="24" height="24" viewBox="0 0 24 24" fill="none" xmlns="http://www.w3.org/2000/svg">
<path fill-rule="evenodd" clip-rule="evenodd" d="M5.50686 5.51971C7.35721 5.33139 9.20777 5.23721 11.0585 5.23721C14.165 5.23721 17.28 5.39655 20.3759 5.70573C20.7564 5.74372 21.0343 6.08537 20.9966 6.4688C20.9589 6.85224 20.6199 7.13227 20.2394 7.09427C17.1876 6.7895 14.1181 6.63256 11.0585 6.63256C9.25414 6.63256 7.44968 6.72439 5.645 6.9081L5.64297 6.9083L3.7599 7.09435C3.37938 7.13194 3.04066 6.85155 3.00335 6.46807C2.96605 6.0846 3.24428 5.74325 3.6248 5.70565L5.50686 5.51971Z" fill="#171725"/>
<path fill-rule="evenodd" clip-rule="evenodd" d="M9.65501 4.35773L9.45199 5.57601C9.38867 5.95601 9.03166 6.21232 8.65459 6.1485C8.27752 6.08469 8.02318 5.72491 8.08651 5.34492L8.28958 4.12631C8.29313 4.10509 8.29678 4.08286 8.30048 4.06035C8.36404 3.67348 8.45729 3.10593 8.83269 2.67692C9.27029 2.17685 9.93795 2 10.7908 2H13.2092C14.0724 2 14.7394 2.19107 15.1744 2.69623C15.5503 3.1328 15.6412 3.70238 15.7019 4.08271C15.7049 4.10121 15.7078 4.11927 15.7106 4.13684L15.9133 5.34405C15.9771 5.72397 15.7233 6.08407 15.3463 6.14836C14.9693 6.21265 14.612 5.95679 14.5482 5.57688L14.3444 4.36343C14.2672 3.88621 14.2183 3.7149 14.1286 3.61075C14.079 3.55312 13.906 3.39535 13.2092 3.39535H10.7908C10.0836 3.39535 9.91589 3.54873 9.87118 3.59982C9.78615 3.69699 9.73817 3.86024 9.65501 4.35773Z" fill="#171725"/>
<path fill-rule="evenodd" clip-rule="evenodd" d="M18.3676 8.64331C18.7492 8.66813 19.0385 8.99996 19.0139 9.38448L18.4137 18.7557L18.4124 18.7734C18.3881 19.1234 18.3614 19.5083 18.2898 19.8664C18.2156 20.2377 18.0848 20.6296 17.8198 20.9773C17.2649 21.7054 16.3205 22 14.9631 22H9.03694C7.6795 22 6.73514 21.7054 6.18022 20.9773C5.9152 20.6296 5.78441 20.2377 5.7102 19.8664C5.63864 19.5083 5.61189 19.1234 5.58757 18.7734L5.58608 18.7519L4.98609 9.38448C4.96146 8.99996 5.25081 8.66813 5.63236 8.64331C6.01392 8.61849 6.3432 8.91008 6.36782 9.2946L6.96757 18.6582L6.9677 18.6601C6.99375 19.0348 7.0158 19.3319 7.06755 19.5909C7.11796 19.8431 7.18794 20.0088 7.2783 20.1273C7.43414 20.3318 7.81901 20.6047 9.03694 20.6047H14.9631C16.181 20.6047 16.5659 20.3318 16.7217 20.1273C16.8121 20.0088 16.882 19.8431 16.9324 19.5909C16.9842 19.3319 17.0063 19.0348 17.0323 18.6601L17.0324 18.6582L17.6322 9.2946C17.6568 8.91008 17.9861 8.61849 18.3676 8.64331Z" fill="#171725"/>
<path fill-rule="evenodd" clip-rule="evenodd" d="M9.76617 16.186C9.76617 15.8007 10.0761 15.4884 10.4585 15.4884H13.5323C13.9146 15.4884 14.2246 15.8007 14.2246 16.186C14.2246 16.5714 13.9146 16.8837 13.5323 16.8837H10.4585C10.0761 16.8837 9.76617 16.5714 9.76617 16.186Z" fill="#171725"/>
<path fill-rule="evenodd" clip-rule="evenodd" d="M9.00002 12.4651C9.00002 12.0798 9.30997 11.7674 9.69232 11.7674H14.3077C14.69 11.7674 15 12.0798 15 12.4651C15 12.8504 14.69 13.1628 14.3077 13.1628H9.69232C9.30997 13.1628 9.00002 12.8504 9.00002 12.4651Z" fill="#171725"/>
</svg>
