<svg width="24" height="24" viewBox="0 0 24 24" fill="none" xmlns="http://www.w3.org/2000/svg">
<path d="M20.3617 5.7006C18.8767 5.55184 17.3918 5.44026 15.8976 5.35658V5.34728L15.6947 4.13854C15.5563 3.28312 15.3534 2 13.1951 2H10.7786C8.62955 2 8.42664 3.22734 8.27907 4.12924L8.08538 5.31939C7.2276 5.37517 6.36983 5.43096 5.51205 5.51464L3.63049 5.7006C3.24311 5.7378 2.9664 6.08182 3.0033 6.46304C3.04019 6.84426 3.37223 7.1232 3.75961 7.08601L5.64118 6.90005C10.4742 6.41655 15.3442 6.60251 20.2326 7.0953C20.2602 7.0953 20.2787 7.0953 20.3063 7.0953C20.6568 7.0953 20.9612 6.82566 20.9981 6.46304C21.0258 6.08182 20.7491 5.7378 20.3617 5.7006Z" fill="#171725"/>
<path d="M18.6646 8.40632C18.4432 8.17387 18.1388 8.0437 17.8253 8.0437H6.16691C5.85332 8.0437 5.53972 8.17387 5.32759 8.40632C5.11545 8.63877 4.99555 8.9549 5.01399 9.28033L5.58584 18.8201C5.6873 20.2334 5.81643 22 9.03538 22H14.9568C18.1757 22 18.3049 20.2427 18.4063 18.8201L18.9782 9.28963C18.9966 8.9549 18.8767 8.63877 18.6646 8.40632ZM13.5272 17.3417H10.4558C10.0776 17.3417 9.76403 17.0256 9.76403 16.6444C9.76403 16.2631 10.0776 15.947 10.4558 15.947H13.5272C13.9053 15.947 14.2189 16.2631 14.2189 16.6444C14.2189 17.0256 13.9053 17.3417 13.5272 17.3417ZM14.3019 13.6225H9.69024C9.31208 13.6225 8.99849 13.3064 8.99849 12.9252C8.99849 12.5439 9.31208 12.2278 9.69024 12.2278H14.3019C14.6801 12.2278 14.9937 12.5439 14.9937 12.9252C14.9937 13.3064 14.6801 13.6225 14.3019 13.6225Z" fill="#171725"/>
</svg>
