<svg width="24" height="24" viewBox="0 0 24 24" fill="none" xmlns="http://www.w3.org/2000/svg">
<path d="M12.8364 9.49984C12.8364 9.96007 12.4633 10.3332 12.0031 10.3332H11.9956C11.5354 10.3332 11.1623 9.96007 11.1623 9.49984C11.1623 9.0396 11.5354 8.6665 11.9956 8.6665H12.0031C12.4633 8.6665 12.8364 9.0396 12.8364 9.49984Z" fill="#171725"/>
<path d="M11.9986 16.7915C11.6534 16.7915 11.3736 16.5117 11.3736 16.1665L11.3736 11.9998C11.3736 11.6547 11.6534 11.3748 11.9986 11.3748C12.3438 11.3748 12.6236 11.6547 12.6236 11.9998V16.1665C12.6236 16.5117 12.3438 16.7915 11.9986 16.7915Z" fill="#171725"/>
<path fill-rule="evenodd" clip-rule="evenodd" d="M12.0001 3.0415C7.07157 3.0415 3.04175 7.07133 3.04175 11.9998C3.04175 16.9283 7.07157 20.9582 12.0001 20.9582C16.9286 20.9582 20.9584 16.9283 20.9584 11.9998C20.9584 7.07133 16.9286 3.0415 12.0001 3.0415ZM4.29175 11.9998C4.29175 7.76168 7.76193 4.2915 12.0001 4.2915C16.2382 4.2915 19.7084 7.76168 19.7084 11.9998C19.7084 16.238 16.2382 19.7082 12.0001 19.7082C7.76193 19.7082 4.29175 16.238 4.29175 11.9998Z" fill="#171725"/>
</svg>
